<svg width="200" height="60" viewBox="0 0 200 60" fill="none" xmlns="http://www.w3.org/2000/svg">
<path d="M192.27 1.3105C195.799 1.3105 198.672 4.14381 198.672 7.62581V52.3729C198.672 55.8562 195.799 58.6895 192.27 58.6895H7.73028C4.20058 58.6895 1.32845 55.8562 1.32845 52.3729V7.62581C1.32845 4.14381 4.20058 1.3105 7.73028 1.3105H192.27ZM192.27 0H7.73028C3.46063 0 0 3.41386 0 7.62581V52.3729C0 56.5848 3.46063 60 7.73028 60H192.27C196.539 60 200 56.5861 200 52.3729V7.62581C200 3.41386 196.539 0 192.27 0Z" fill="black"/>
<path d="M20.6184 24.9178C17.3744 30.4717 19.4361 38.9008 23.0243 44.0105C24.815 46.5659 26.6284 48.8593 29.1112 48.8593C29.1577 48.8593 29.2042 48.8593 29.2534 48.8567C30.4198 48.8108 31.2633 48.457 32.079 48.1136C32.9943 47.7284 33.9415 47.3313 35.4267 47.3313C36.9119 47.3313 37.7409 47.7166 38.6123 48.0874C39.4718 48.4544 40.3566 48.8344 41.6638 48.8095C44.4615 48.7584 46.1792 46.2829 47.6937 44.0996C49.2745 41.8206 50.0689 39.6072 50.3359 38.7606L50.3466 38.7265C50.3971 38.5758 50.3253 38.412 50.1792 38.3465C50.1792 38.3465 50.1606 38.3386 50.1566 38.3373C49.6638 38.1381 45.3423 36.2471 45.2971 31.0929C45.2546 26.9045 48.5385 24.6884 49.1974 24.2861L49.228 24.2665C49.2998 24.2219 49.3489 24.1498 49.3662 24.0673C49.3834 23.9847 49.3662 23.8995 49.317 23.8301C47.0507 20.5577 43.5768 20.065 42.1779 20.006C41.976 19.9864 41.7661 19.9759 41.5562 19.9759C39.9129 19.9759 38.34 20.5879 37.0753 21.0793C36.2025 21.4187 35.448 21.7123 34.9299 21.7123C34.3454 21.7123 33.5868 21.4148 32.71 21.0728C31.5357 20.6128 30.2046 20.0925 28.7964 20.0925C28.7632 20.0925 28.73 20.0925 28.6968 20.0938C25.4208 20.141 22.3255 21.9901 20.6198 24.9165L20.6184 24.9178Z" fill="black"/>
<path d="M42.1806 11.0003C40.1972 11.0802 37.818 12.2846 36.3965 13.928C35.1876 15.3079 34.0066 17.6118 34.3175 19.9327C34.3374 20.0781 34.457 20.1895 34.6058 20.2013C34.7399 20.2118 34.8754 20.2171 35.0123 20.2171C36.9518 20.2171 39.0441 19.1582 40.4722 17.4545C41.976 15.6552 42.7359 13.3461 42.5061 11.2768C42.4875 11.1143 42.3427 10.9937 42.1806 11.0003Z" fill="black"/>
<path d="M65.0009 11.5645H68.7617C69.7488 11.5645 70.6242 11.765 71.3894 12.1674C72.1546 12.5697 72.7498 13.1253 73.1749 13.8356C73.6 14.5459 73.8125 15.3519 73.8125 16.2535C73.8125 17.1551 73.6 17.9611 73.1749 18.6714C72.7498 19.3817 72.1546 19.9373 71.3894 20.3383C70.6242 20.7407 69.7488 20.9412 68.7617 20.9412H65.0009V11.5645ZM68.7073 20.3252C69.5854 20.3252 70.3586 20.1536 71.0294 19.8089C71.699 19.4655 72.2158 18.9846 72.5771 18.3687C72.9384 17.7527 73.1204 17.0477 73.1204 16.2522C73.1204 15.4567 72.9398 14.7517 72.5771 14.1357C72.2144 13.5198 71.699 13.0402 71.0294 12.6955C70.3599 12.3521 69.5854 12.1805 68.7073 12.1805H65.693V20.3239H68.7073V20.3252Z" fill="black"/>
<path d="M76.957 20.5389C76.419 20.2349 75.9952 19.8129 75.687 19.273C75.3788 18.733 75.2247 18.1237 75.2247 17.4448C75.2247 16.766 75.3788 16.1566 75.687 15.6167C75.9952 15.0767 76.4177 14.6548 76.957 14.3507C77.4951 14.0467 78.0995 13.8947 78.7704 13.8947C79.4412 13.8947 80.0443 14.0467 80.5837 14.3507C81.1217 14.6548 81.5455 15.0767 81.8537 15.6167C82.1619 16.1566 82.316 16.766 82.316 17.4448C82.316 18.1237 82.1619 18.733 81.8537 19.273C81.5455 19.8129 81.123 20.2349 80.5837 20.5389C80.0457 20.8429 79.4412 20.995 78.7704 20.995C78.0995 20.995 77.4964 20.8429 76.957 20.5389ZM80.229 20.016C80.6594 19.7657 80.9982 19.4184 81.2479 18.9715C81.4963 18.5247 81.6212 18.0162 81.6212 17.4448C81.6212 16.8734 81.4963 16.365 81.2479 15.9181C80.9982 15.4712 80.6594 15.1239 80.229 14.8736C79.7986 14.6233 79.3124 14.4988 78.769 14.4988C78.2257 14.4988 77.7395 14.6233 77.3091 14.8736C76.8786 15.1239 76.5399 15.4725 76.2902 15.9181C76.0404 16.365 75.9169 16.8734 75.9169 17.4448C75.9169 18.0162 76.0417 18.526 76.2902 18.9715C76.5386 19.4184 76.8786 19.767 77.3091 20.016C77.7395 20.2663 78.2257 20.3908 78.769 20.3908C79.3124 20.3908 79.7986 20.2663 80.229 20.016Z" fill="black"/>
<path d="M94.3437 13.9484L91.655 20.9399H91.0173L88.6274 14.8723L86.2243 20.9399H85.5999L82.9111 13.9484H83.5634L85.9254 20.1903L88.3418 13.9484H88.9263L91.3295 20.1772L93.7194 13.9484H94.3437Z" fill="black"/>
<path d="M101.486 14.6587C102.001 15.1672 102.26 15.8997 102.26 16.8551V20.9399H101.581V16.9075C101.581 16.1212 101.379 15.5236 100.977 15.1121C100.574 14.7019 100.011 14.4962 99.2856 14.4962C98.4527 14.4962 97.7965 14.7426 97.3169 15.2327C96.8373 15.7241 96.5969 16.3846 96.5969 17.2155V20.9386H95.918V13.9471H96.5703V15.4607C96.8147 14.9693 97.1787 14.5853 97.6636 14.3088C98.1472 14.0323 98.721 13.8933 99.3813 13.8933C100.269 13.8933 100.97 14.1476 101.486 14.6574V14.6587Z" fill="black"/>
<path d="M105.056 11.0025H105.735V20.9413H105.056V11.0025Z" fill="black"/>
<path d="M109.557 20.5389C109.018 20.2349 108.595 19.8129 108.287 19.273C107.979 18.733 107.825 18.1237 107.825 17.4448C107.825 16.766 107.979 16.1566 108.287 15.6167C108.595 15.0767 109.018 14.6548 109.557 14.3507C110.095 14.0467 110.7 13.8947 111.369 13.8947C112.039 13.8947 112.643 14.0467 113.183 14.3507C113.721 14.6548 114.144 15.0767 114.453 15.6167C114.761 16.1566 114.914 16.766 114.914 17.4448C114.914 18.1237 114.759 18.733 114.453 19.273C114.144 19.8129 113.722 20.2349 113.183 20.5389C112.643 20.8429 112.04 20.995 111.369 20.995C110.698 20.995 110.095 20.8429 109.557 20.5389ZM112.829 20.016C113.26 19.7657 113.598 19.4184 113.848 18.9715C114.097 18.5247 114.221 18.0162 114.221 17.4448C114.221 16.8734 114.097 16.365 113.848 15.9181C113.598 15.4712 113.26 15.1239 112.829 14.8736C112.399 14.6233 111.913 14.4988 111.369 14.4988C110.826 14.4988 110.34 14.6233 109.909 14.8736C109.479 15.1239 109.14 15.4725 108.89 15.9181C108.641 16.365 108.517 16.8734 108.517 17.4448C108.517 18.0162 108.642 18.526 108.89 18.9715C109.139 19.4184 109.479 19.767 109.909 20.016C110.34 20.2663 110.826 20.3908 111.369 20.3908C111.913 20.3908 112.399 20.2663 112.829 20.016Z" fill="black"/>
<path d="M121.404 14.559C121.875 15.0006 122.11 15.6507 122.11 16.5077V20.9411H121.458V19.6949C121.232 20.105 120.901 20.4248 120.466 20.6528C120.032 20.8809 119.511 20.9949 118.906 20.9949C118.118 20.9949 117.496 20.8114 117.039 20.4458C116.582 20.0801 116.354 19.5979 116.354 18.999C116.354 18.4001 116.563 17.948 116.985 17.5863C117.406 17.2246 118.078 17.0437 119.001 17.0437H121.432V16.4815C121.432 15.8302 121.253 15.3348 120.896 14.9941C120.538 14.6547 120.015 14.4856 119.327 14.4856C118.856 14.4856 118.406 14.5656 117.976 14.7268C117.545 14.8879 117.181 15.1016 116.882 15.3702L116.542 14.8879C116.896 14.576 117.321 14.3323 117.819 14.158C118.317 13.9837 118.838 13.8972 119.38 13.8972C120.258 13.8972 120.933 14.1187 121.403 14.5603L121.404 14.559ZM120.501 20.0448C120.913 19.7774 121.222 19.3882 121.431 18.8797V17.5666H119.014C118.317 17.5666 117.812 17.6911 117.5 17.9414C117.188 18.1917 117.031 18.5351 117.031 18.9728C117.031 19.4105 117.202 19.7879 117.547 20.0513C117.891 20.3147 118.374 20.4471 119 20.4471C119.588 20.4471 120.088 20.3134 120.5 20.0448H120.501Z" fill="black"/>
<path d="M131.22 11.0025V20.9413H130.555V19.294C130.274 19.8392 129.88 20.2585 129.374 20.5534C128.866 20.8483 128.292 20.995 127.649 20.995C127.006 20.995 126.391 20.843 125.857 20.539C125.323 20.235 124.905 19.8156 124.602 19.2796C124.299 18.7436 124.148 18.1329 124.148 17.4449C124.148 16.7569 124.299 16.1436 124.602 15.6036C124.905 15.0637 125.323 14.6444 125.857 14.3443C126.391 14.0455 126.989 13.8961 127.649 13.8961C128.31 13.8961 128.852 14.0428 129.354 14.3377C129.856 14.6326 130.252 15.0428 130.542 15.5696V11.0025H131.22ZM129.149 20.0174C129.58 19.7671 129.918 19.4198 130.168 18.9729C130.417 18.5261 130.542 18.0176 130.542 17.4462C130.542 16.8748 130.417 16.3664 130.168 15.9195C129.918 15.4726 129.58 15.1253 129.149 14.875C128.719 14.6247 128.233 14.5002 127.689 14.5002C127.146 14.5002 126.66 14.6247 126.229 14.875C125.799 15.1253 125.46 15.4739 125.21 15.9195C124.961 16.3664 124.837 16.8748 124.837 17.4462C124.837 18.0176 124.962 18.5274 125.21 18.9729C125.459 19.4198 125.799 19.7684 126.229 20.0174C126.66 20.2677 127.146 20.3922 127.689 20.3922C128.233 20.3922 128.719 20.2677 129.149 20.0174Z" fill="black"/>
<path d="M138.532 20.5389C137.994 20.2349 137.57 19.8129 137.262 19.273C136.954 18.733 136.8 18.1237 136.8 17.4448C136.8 16.766 136.954 16.1566 137.262 15.6167C137.57 15.0767 137.993 14.6548 138.532 14.3507C139.07 14.0467 139.675 13.8947 140.346 13.8947C141.016 13.8947 141.619 14.0467 142.157 14.3507C142.696 14.6548 143.119 15.0767 143.428 15.6167C143.736 16.1566 143.888 16.766 143.888 17.4448C143.888 18.1237 143.734 18.733 143.428 19.273C143.119 19.8129 142.697 20.2349 142.157 20.5389C141.619 20.8429 141.015 20.995 140.346 20.995C139.676 20.995 139.072 20.8429 138.532 20.5389ZM141.804 20.016C142.235 19.7657 142.573 19.4184 142.823 18.9715C143.071 18.5247 143.196 18.0162 143.196 17.4448C143.196 16.8734 143.071 16.365 142.823 15.9181C142.573 15.4712 142.235 15.1239 141.804 14.8736C141.374 14.6233 140.888 14.4988 140.344 14.4988C139.801 14.4988 139.315 14.6233 138.884 14.8736C138.454 15.1239 138.115 15.4725 137.865 15.9181C137.616 16.365 137.492 16.8734 137.492 17.4448C137.492 18.0162 137.617 18.526 137.865 18.9715C138.114 19.4184 138.454 19.767 138.884 20.016C139.315 20.2663 139.801 20.3908 140.344 20.3908C140.888 20.3908 141.374 20.2663 141.804 20.016Z" fill="black"/>
<path d="M151.56 14.6587C152.076 15.1672 152.335 15.8997 152.335 16.8551V20.9399H151.656V16.9075C151.656 16.1212 151.454 15.5236 151.051 15.1121C150.649 14.7019 150.086 14.4962 149.36 14.4962C148.527 14.4962 147.871 14.7426 147.392 15.2327C146.912 15.7241 146.672 16.3846 146.672 17.2155V20.9386H145.993V13.9471H146.645V15.4607C146.889 14.9693 147.253 14.5853 147.738 14.3088C148.222 14.0323 148.796 13.8933 149.456 13.8933C150.343 13.8933 151.045 14.1476 151.56 14.6574V14.6587Z" fill="black"/>
<path d="M162.137 20.4996C161.965 20.6608 161.751 20.7827 161.492 20.8679C161.234 20.9531 160.964 20.995 160.684 20.995C160.068 20.995 159.593 20.8273 159.259 20.4931C158.924 20.1576 158.757 19.6924 158.757 19.0935V14.5264H157.453V13.9511H158.757V12.4243H159.435V13.9511H161.69V14.5264H159.435V19.0266C159.435 19.4814 159.546 19.8287 159.767 20.0646C159.989 20.3018 160.317 20.4197 160.752 20.4197C161.186 20.4197 161.562 20.29 161.852 20.0318L162.137 20.501V20.4996Z" fill="black"/>
<path d="M169.591 14.6587C170.107 15.1671 170.366 15.8997 170.366 16.8551V20.9399H169.687V16.9075C169.687 16.1212 169.485 15.5236 169.083 15.1121C168.68 14.7019 168.117 14.4962 167.392 14.4962C166.559 14.4962 165.902 14.7425 165.423 15.2327C164.943 15.7241 164.703 16.3846 164.703 17.2155V20.9386H164.024V10.9998H164.703V15.407C164.947 14.9247 165.308 14.5525 165.789 14.2891C166.269 14.0257 166.835 13.8933 167.487 13.8933C168.375 13.8933 169.076 14.1476 169.591 14.6574V14.6587Z" fill="black"/>
<path d="M179.164 17.606H173.068C173.087 18.1512 173.226 18.6348 173.489 19.0594C173.752 19.484 174.107 19.8116 174.554 20.0435C175.002 20.2755 175.507 20.3921 176.069 20.3921C176.53 20.3921 176.958 20.3096 177.352 20.1445C177.745 19.9793 178.074 19.7356 178.337 19.4145L178.73 19.8561C178.422 20.2231 178.035 20.5035 177.569 20.7001C177.102 20.8967 176.598 20.995 176.054 20.995C175.348 20.995 174.719 20.8429 174.167 20.5389C173.614 20.2349 173.182 19.8155 172.87 19.2795C172.558 18.7435 172.401 18.1328 172.401 17.4448C172.401 16.7568 172.549 16.1566 172.842 15.6167C173.136 15.0767 173.541 14.6548 174.058 14.3507C174.573 14.0467 175.152 13.8947 175.795 13.8947C176.438 13.8947 177.015 14.0441 177.526 14.3429C178.038 14.6417 178.44 15.0597 178.735 15.5957C179.029 16.1317 179.176 16.7385 179.176 17.4173L179.163 17.6047L179.164 17.606ZM174.452 14.8133C174.054 15.0322 173.735 15.3402 173.494 15.7372C173.254 16.1343 173.116 16.5838 173.08 17.0831H178.511C178.484 16.5825 178.347 16.1369 178.103 15.7438C177.858 15.3506 177.537 15.0427 177.138 14.8199C176.74 14.5971 176.292 14.4844 175.794 14.4844C175.296 14.4844 174.848 14.5945 174.45 14.812L174.452 14.8133Z" fill="black"/>
<path d="M75.0535 41.6696H66.9326L65.3319 45.3783H62.2219L69.5311 29.3548H72.5015L79.8332 45.3783H76.6782L75.0535 41.6696ZM74.0558 39.3343L70.9924 32.3296L67.9529 39.3343H74.0558Z" fill="black"/>
<path d="M91.7255 33.7949C92.6767 34.3138 93.4233 35.0464 93.9653 35.9926C94.506 36.9387 94.777 38.0304 94.777 39.2662C94.777 40.502 94.506 41.5976 93.9653 42.5503C93.4233 43.5044 92.6781 44.2409 91.7255 44.7598C90.7744 45.2788 89.6957 45.5383 88.4881 45.5383C86.8169 45.5383 85.4951 44.9892 84.52 43.8896V49.8184H81.62V33.154H84.3819V34.7568C84.8614 34.1775 85.4526 33.7424 86.1567 33.4515C86.8608 33.1619 87.6379 33.0164 88.4881 33.0164C89.6943 33.0164 90.773 33.2759 91.7255 33.7949ZM90.797 42.0353C91.4851 41.3342 91.8292 40.4103 91.8292 39.2662C91.8292 38.1221 91.4851 37.1982 90.797 36.4958C90.1088 35.7947 89.2307 35.4435 88.164 35.4435C87.4678 35.4435 86.8408 35.6007 86.2842 35.9126C85.7276 36.2258 85.2865 36.6714 84.9611 37.252C84.6356 37.8325 84.4735 38.5035 84.4735 39.2662C84.4735 40.0289 84.6356 40.7012 84.9611 41.2804C85.2865 41.861 85.7263 42.3066 86.2842 42.6198C86.8408 42.933 87.4678 43.0889 88.164 43.0889C89.2307 43.0889 90.1088 42.7377 90.797 42.0366V42.0353Z" fill="black"/>
<path d="M107.643 33.7949C108.594 34.3138 109.341 35.0464 109.883 35.9926C110.424 36.9387 110.695 38.0304 110.695 39.2662C110.695 40.502 110.424 41.5976 109.883 42.5503C109.341 43.5044 108.596 44.2409 107.643 44.7598C106.692 45.2788 105.613 45.5383 104.406 45.5383C102.734 45.5383 101.413 44.9892 100.438 43.8896V49.8184H97.5375V33.154H100.299V34.7568C100.779 34.1775 101.37 33.7424 102.074 33.4515C102.778 33.1619 103.555 33.0164 104.406 33.0164C105.612 33.0164 106.691 33.2759 107.643 33.7949ZM106.715 42.0353C107.403 41.3342 107.747 40.4103 107.747 39.2662C107.747 38.1221 107.403 37.1982 106.715 36.4958C106.026 35.7947 105.148 35.4435 104.081 35.4435C103.385 35.4435 102.758 35.6007 102.202 35.9126C101.645 36.2258 101.204 36.6714 100.879 37.252C100.553 37.8325 100.391 38.5035 100.391 39.2662C100.391 40.0289 100.553 40.7012 100.879 41.2804C101.204 41.861 101.644 42.3066 102.202 42.6198C102.758 42.933 103.385 43.0889 104.081 43.0889C105.148 43.0889 106.026 42.7377 106.715 42.0366V42.0353Z" fill="black"/>
<path d="M121.541 45.0795C120.374 44.7283 119.449 44.263 118.769 43.6838L119.813 41.3721C120.479 41.891 121.294 42.3143 122.261 42.6419C123.228 42.9709 124.198 43.1347 125.173 43.1347C126.38 43.1347 127.28 42.9447 127.877 42.562C128.472 42.1806 128.769 41.6774 128.769 41.051C128.769 40.5936 128.603 40.2149 128.27 39.9174C127.936 39.6199 127.515 39.388 127.005 39.2189C126.495 39.0512 125.799 38.8611 124.917 38.6462C123.679 38.3566 122.677 38.067 121.912 37.776C121.147 37.4864 120.489 37.0317 119.939 36.4144C119.391 35.7959 119.116 34.9611 119.116 33.9074C119.116 33.0229 119.359 32.2169 119.846 31.4922C120.334 30.7675 121.068 30.1909 122.05 29.7636C123.032 29.3364 124.235 29.1228 125.658 29.1228C126.648 29.1228 127.623 29.2447 128.582 29.4884C129.541 29.7322 130.369 30.0834 131.065 30.5408L130.114 32.8525C129.402 32.441 128.659 32.1278 127.886 31.9142C127.113 31.7006 126.362 31.5944 125.636 31.5944C124.444 31.5944 123.559 31.7923 122.979 32.1894C122.398 32.5865 122.109 33.1133 122.109 33.7685C122.109 34.2259 122.275 34.6007 122.608 34.8903C122.94 35.1799 123.363 35.4093 123.873 35.577C124.383 35.7448 125.079 35.9361 125.961 36.1497C127.167 36.4249 128.157 36.7106 128.931 37.0081C129.705 37.3056 130.366 37.7603 130.915 38.3697C131.464 38.9804 131.739 39.8047 131.739 40.8413C131.739 41.7259 131.495 42.5279 131.008 43.2448C130.52 43.9616 129.782 44.5343 128.792 44.9615C127.802 45.3887 126.595 45.6024 125.172 45.6024C123.919 45.6024 122.709 45.4267 121.54 45.0755L121.541 45.0795Z" fill="black"/>
<path d="M141.903 44.7139C141.562 44.9891 141.148 45.1949 140.662 45.3325C140.174 45.4701 139.66 45.5382 139.118 45.5382C137.756 45.5382 136.706 45.187 135.963 44.4859C135.22 43.7848 134.85 42.7613 134.85 41.418V35.5352H132.808V33.2457H134.85V30.453H137.75V33.2457H141.068V35.5352H137.75V41.3498C137.75 41.9448 137.896 42.3996 138.191 42.7115C138.484 43.0247 138.91 43.1806 139.468 43.1806C140.117 43.1806 140.659 43.0129 141.092 42.6774L141.904 44.7152L141.903 44.7139Z" fill="black"/>
<path d="M146.057 44.7362C145.051 44.2029 144.266 43.4585 143.701 42.5044C143.137 41.5504 142.854 40.4705 142.854 39.2649C142.854 38.0592 143.135 36.9833 143.701 36.0371C144.266 35.0909 145.051 34.3505 146.057 33.8171C147.062 33.2838 148.191 33.0164 149.444 33.0164C150.697 33.0164 151.85 33.2838 152.856 33.8171C153.861 34.3518 154.646 35.0909 155.211 36.0371C155.776 36.9833 156.057 38.0592 156.057 39.2649C156.057 40.4705 155.774 41.5504 155.211 42.5044C154.646 43.4585 153.861 44.2029 152.856 44.7362C151.85 45.2709 150.713 45.5369 149.444 45.5369C148.175 45.5369 147.062 45.2696 146.057 44.7362ZM152.089 42.0353C152.785 41.3342 153.133 40.4103 153.133 39.2662C153.133 38.1221 152.785 37.1982 152.089 36.4958C151.393 35.7947 150.511 35.4435 149.444 35.4435C148.377 35.4435 147.499 35.7947 146.811 36.4958C146.123 37.1982 145.779 38.1208 145.779 39.2662C145.779 40.4116 146.123 41.3342 146.811 42.0353C147.499 42.7377 148.377 43.0876 149.444 43.0876C150.511 43.0876 151.393 42.7364 152.089 42.0353Z" fill="black"/>
<path d="M166.011 33.0164V35.7409C165.764 35.6951 165.54 35.6728 165.338 35.6728C164.209 35.6728 163.327 35.9978 162.693 36.6452C162.058 37.2939 161.742 38.2283 161.742 39.4497V45.3784H158.842V33.1553H161.604V34.9402C162.439 33.6586 163.908 33.0177 166.013 33.0177L166.011 33.0164Z" fill="black"/>
<path d="M179.957 40.1809H170.234C170.404 41.0812 170.85 41.7942 171.568 42.321C172.288 42.8478 173.181 43.1112 174.248 43.1112C175.609 43.1112 176.731 42.6683 177.613 41.7837L179.167 43.5463C178.61 44.2029 177.906 44.6982 177.056 45.0337C176.205 45.3692 175.247 45.5369 174.179 45.5369C172.817 45.5369 171.619 45.2696 170.583 44.7362C169.546 44.2029 168.745 43.4585 168.181 42.5044C167.616 41.5504 167.334 40.4705 167.334 39.2649C167.334 38.0592 167.609 37.003 168.158 36.0489C168.707 35.0949 169.469 34.3518 170.443 33.8171C171.418 33.2838 172.515 33.0164 173.738 33.0164C174.96 33.0164 176.023 33.2798 176.975 33.8066C177.926 34.3335 178.669 35.0739 179.203 36.0266C179.737 36.9807 180.004 38.0828 180.004 39.3343C180.004 39.5322 179.988 39.8153 179.957 40.1809ZM171.384 36.1184C170.742 36.6596 170.351 37.3817 170.212 38.282H177.242C177.118 37.3974 176.739 36.6793 176.105 36.1302C175.47 35.5811 174.682 35.3059 173.738 35.3059C172.793 35.3059 172.024 35.5771 171.382 36.1184H171.384Z" fill="black"/>
</svg>
