<svg width="200" height="200" viewBox="0 0 200 200" fill="none" xmlns="http://www.w3.org/2000/svg">
<path d="M72.4151 0C74.321 0 75.8592 1.5465 75.8592 3.4441C75.8592 5.34169 74.3127 6.88819 72.4151 6.88819C70.5175 6.88819 68.971 5.34169 68.971 3.4441C68.971 1.5465 70.5175 0 72.4151 0Z" fill="#333333"/>
<path d="M86.2076 0C88.1136 0 89.6517 1.5465 89.6517 3.4441C89.6517 5.34169 88.1052 6.88819 86.2076 6.88819C84.3101 6.88819 82.7635 5.34169 82.7635 3.4441C82.7635 1.5465 84.3101 0 86.2076 0Z" fill="#333333"/>
<path d="M106.905 0C108.811 0 110.349 1.5465 110.349 3.4441C110.349 5.34169 108.802 6.88819 106.905 6.88819C105.007 6.88819 103.461 5.34169 103.461 3.4441C103.461 1.5465 105.007 0 106.905 0Z" fill="#333333"/>
<path d="M113.793 0C115.699 0 117.237 1.5465 117.237 3.4441C117.237 5.34169 115.69 6.88819 113.793 6.88819C111.895 6.88819 110.349 5.34169 110.349 3.4441C110.349 1.5465 111.895 0 113.793 0Z" fill="#333333"/>
<path d="M120.697 0C122.603 0 124.141 1.5465 124.141 3.4441C124.141 5.34169 122.595 6.88819 120.697 6.88819C118.8 6.88819 117.253 5.34169 117.253 3.4441C117.253 1.5465 118.8 0 120.697 0Z" fill="#333333"/>
<path d="M127.585 0C129.491 0 131.029 1.5465 131.029 3.4441C131.029 5.34169 129.483 6.88819 127.585 6.88819C125.688 6.88819 124.141 5.34169 124.141 3.4441C124.141 1.5465 125.688 0 127.585 0Z" fill="#333333"/>
<path d="M134.49 0C136.396 0 137.934 1.5465 137.934 3.4441C137.934 5.34169 136.387 6.88819 134.49 6.88819C132.592 6.88819 131.046 5.34169 131.046 3.4441C131.046 1.5465 132.592 0 134.49 0Z" fill="#333333"/>
<path d="M141.378 0C143.284 0 144.822 1.5465 144.822 3.4441C144.822 5.34169 143.275 6.88819 141.378 6.88819C139.48 6.88819 137.934 5.34169 137.934 3.4441C137.934 1.5465 139.48 0 141.378 0Z" fill="#333333"/>
<path d="M79.3114 6.89655C81.2173 6.89655 82.7638 8.44305 82.7638 10.3406C82.7638 12.2382 81.2173 13.7847 79.3114 13.7847C77.4054 13.7847 75.8673 12.2382 75.8673 10.3406C75.8673 8.44305 77.4138 6.89655 79.3114 6.89655Z" fill="#333333"/>
<path d="M86.2076 6.89655C88.1136 6.89655 89.6517 8.44305 89.6517 10.3406C89.6517 12.2382 88.1052 13.7847 86.2076 13.7847C84.3101 13.7847 82.7635 12.2382 82.7635 10.3406C82.7635 8.44305 84.3101 6.89655 86.2076 6.89655Z" fill="#333333"/>
<path d="M106.905 6.89655C108.811 6.89655 110.349 8.44305 110.349 10.3406C110.349 12.2382 108.802 13.7847 106.905 13.7847C105.007 13.7847 103.461 12.2382 103.461 10.3406C103.461 8.44305 105.007 6.89655 106.905 6.89655Z" fill="#333333"/>
<path d="M113.793 6.89655C115.699 6.89655 117.237 8.44305 117.237 10.3406C117.237 12.2382 115.69 13.7847 113.793 13.7847C111.895 13.7847 110.349 12.2382 110.349 10.3406C110.349 8.44305 111.895 6.89655 113.793 6.89655Z" fill="#333333"/>
<path d="M127.585 6.89655C129.491 6.89655 131.029 8.44305 131.029 10.3406C131.029 12.2382 129.483 13.7847 127.585 13.7847C125.688 13.7847 124.141 12.2382 124.141 10.3406C124.141 8.44305 125.688 6.89655 127.585 6.89655Z" fill="#333333"/>
<path d="M141.378 6.89655C143.284 6.89655 144.822 8.44305 144.822 10.3406C144.822 12.2382 143.275 13.7847 141.378 13.7847C139.48 13.7847 137.934 12.2382 137.934 10.3406C137.934 8.44305 139.48 6.89655 141.378 6.89655Z" fill="#333333"/>
<path d="M72.4151 13.7931C74.321 13.7931 75.8592 15.3396 75.8592 17.2372C75.8592 19.1348 74.3127 20.6813 72.4151 20.6813C70.5175 20.6813 68.971 19.1348 68.971 17.2372C68.971 15.3396 70.5175 13.7931 72.4151 13.7931Z" fill="#333333"/>
<path d="M79.3114 13.7931C81.2173 13.7931 82.7638 15.3396 82.7638 17.2372C82.7638 19.1348 81.2173 20.6813 79.3114 20.6813C77.4054 20.6813 75.8673 19.1348 75.8673 17.2372C75.8673 15.3396 77.4138 13.7931 79.3114 13.7931Z" fill="#333333"/>
<path d="M100 13.7931C101.906 13.7931 103.444 15.3396 103.444 17.2372C103.444 19.1348 101.898 20.6813 100 20.6813C98.1026 20.6813 96.5561 19.1348 96.5561 17.2372C96.5561 15.3396 98.1026 13.7931 100 13.7931Z" fill="#333333"/>
<path d="M113.793 13.7931C115.699 13.7931 117.237 15.3396 117.237 17.2372C117.237 19.1348 115.69 20.6813 113.793 20.6813C111.895 20.6813 110.349 19.1348 110.349 17.2372C110.349 15.3396 111.895 13.7931 113.793 13.7931Z" fill="#333333"/>
<path d="M120.697 13.7931C122.603 13.7931 124.141 15.3396 124.141 17.2372C124.141 19.1348 122.595 20.6813 120.697 20.6813C118.8 20.6813 117.253 19.1348 117.253 17.2372C117.253 15.3396 118.8 13.7931 120.697 13.7931Z" fill="#333333"/>
<path d="M141.378 13.7931C143.284 13.7931 144.822 15.3396 144.822 17.2372C144.822 19.1348 143.275 20.6813 141.378 20.6813C139.48 20.6813 137.934 19.1348 137.934 17.2372C137.934 15.3396 139.48 13.7931 141.378 13.7931Z" fill="#333333"/>
<path d="M72.4151 20.6896C74.321 20.6896 75.8592 22.2361 75.8592 24.1337C75.8592 26.0313 74.3127 27.5778 72.4151 27.5778C70.5175 27.5778 68.971 26.0313 68.971 24.1337C68.971 22.2361 70.5175 20.6896 72.4151 20.6896Z" fill="#333333"/>
<path d="M79.3114 20.6896C81.2173 20.6896 82.7638 22.2361 82.7638 24.1337C82.7638 26.0313 81.2173 27.5778 79.3114 27.5778C77.4054 27.5778 75.8673 26.0313 75.8673 24.1337C75.8673 22.2361 77.4138 20.6896 79.3114 20.6896Z" fill="#333333"/>
<path d="M113.793 20.6896C115.699 20.6896 117.237 22.2361 117.237 24.1337C117.237 26.0313 115.69 27.5778 113.793 27.5778C111.895 27.5778 110.349 26.0313 110.349 24.1337C110.349 22.2361 111.895 20.6896 113.793 20.6896Z" fill="#333333"/>
<path d="M127.585 20.6896C129.491 20.6896 131.029 22.2361 131.029 24.1337C131.029 26.0313 129.483 27.5778 127.585 27.5778C125.688 27.5778 124.141 26.0313 124.141 24.1337C124.141 22.2361 125.688 20.6896 127.585 20.6896Z" fill="#333333"/>
<path d="M65.5189 27.5863C67.4248 27.5863 68.9629 29.1328 68.9629 31.0304C68.9629 32.928 67.4164 34.4745 65.5189 34.4745C63.6213 34.4745 62.0748 32.928 62.0748 31.0304C62.0748 29.1328 63.6213 27.5863 65.5189 27.5863Z" fill="#333333"/>
<path d="M86.2076 27.5863C88.1136 27.5863 89.6517 29.1328 89.6517 31.0304C89.6517 32.928 88.1052 34.4745 86.2076 34.4745C84.3101 34.4745 82.7635 32.928 82.7635 31.0304C82.7635 29.1328 84.3101 27.5863 86.2076 27.5863Z" fill="#333333"/>
<path d="M93.1123 27.5863C95.0182 27.5863 96.5564 29.1328 96.5564 31.0304C96.5564 32.928 95.0098 34.4745 93.1123 34.4745C91.2147 34.4745 89.6682 32.928 89.6682 31.0304C89.6682 29.1328 91.2147 27.5863 93.1123 27.5863Z" fill="#333333"/>
<path d="M106.905 27.5863C108.811 27.5863 110.349 29.1328 110.349 31.0304C110.349 32.928 108.802 34.4745 106.905 34.4745C105.007 34.4745 103.461 32.928 103.461 31.0304C103.461 29.1328 105.007 27.5863 106.905 27.5863Z" fill="#333333"/>
<path d="M127.585 27.5863C129.491 27.5863 131.029 29.1328 131.029 31.0304C131.029 32.928 129.483 34.4745 127.585 34.4745C125.688 34.4745 124.141 32.928 124.141 31.0304C124.141 29.1328 125.688 27.5863 127.585 27.5863Z" fill="#333333"/>
<path d="M58.6226 34.4828C60.5285 34.4828 62.0667 36.0293 62.0667 37.9269C62.0667 39.8245 60.5202 41.371 58.6226 41.371C56.725 41.371 55.1785 39.8245 55.1785 37.9269C55.1785 36.0293 56.725 34.4828 58.6226 34.4828Z" fill="#333333"/>
<path d="M72.4151 34.4828C74.321 34.4828 75.8592 36.0293 75.8592 37.9269C75.8592 39.8245 74.3127 41.371 72.4151 41.371C70.5175 41.371 68.971 39.8245 68.971 37.9269C68.971 36.0293 70.5175 34.4828 72.4151 34.4828Z" fill="#333333"/>
<path d="M93.1123 34.4828C95.0182 34.4828 96.5564 36.0293 96.5564 37.9269C96.5564 39.8245 95.0098 41.371 93.1123 41.371C91.2147 41.371 89.6682 39.8245 89.6682 37.9269C89.6682 36.0293 91.2147 34.4828 93.1123 34.4828Z" fill="#333333"/>
<path d="M100 34.4828C101.906 34.4828 103.444 36.0293 103.444 37.9269C103.444 39.8245 101.898 41.371 100 41.371C98.1026 41.371 96.5561 39.8245 96.5561 37.9269C96.5561 36.0293 98.1026 34.4828 100 34.4828Z" fill="#333333"/>
<path d="M106.905 34.4828C108.811 34.4828 110.349 36.0293 110.349 37.9269C110.349 39.8245 108.802 41.371 106.905 41.371C105.007 41.371 103.461 39.8245 103.461 37.9269C103.461 36.0293 105.007 34.4828 106.905 34.4828Z" fill="#333333"/>
<path d="M113.793 34.4828C115.699 34.4828 117.237 36.0293 117.237 37.9269C117.237 39.8245 115.69 41.371 113.793 41.371C111.895 41.371 110.349 39.8245 110.349 37.9269C110.349 36.0293 111.895 34.4828 113.793 34.4828Z" fill="#333333"/>
<path d="M134.49 34.4828C136.396 34.4828 137.934 36.0293 137.934 37.9269C137.934 39.8245 136.387 41.371 134.49 41.371C132.592 41.371 131.046 39.8245 131.046 37.9269C131.046 36.0293 132.592 34.4828 134.49 34.4828Z" fill="#333333"/>
<path d="M58.6226 41.3793C60.5285 41.3793 62.0667 42.9258 62.0667 44.8318C62.0667 46.7377 60.5202 48.2759 58.6226 48.2759C56.725 48.2759 55.1785 46.7294 55.1785 44.8318C55.1785 42.9342 56.725 41.3793 58.6226 41.3793Z" fill="#333333"/>
<path d="M72.4151 41.3793C74.321 41.3793 75.8592 42.9258 75.8592 44.8318C75.8592 46.7377 74.3127 48.2759 72.4151 48.2759C70.5175 48.2759 68.971 46.7294 68.971 44.8318C68.971 42.9342 70.5175 41.3793 72.4151 41.3793Z" fill="#333333"/>
<path d="M86.2076 41.3793C88.1136 41.3793 89.6517 42.9258 89.6517 44.8318C89.6517 46.7377 88.1052 48.2759 86.2076 48.2759C84.3101 48.2759 82.7635 46.7294 82.7635 44.8318C82.7635 42.9342 84.3101 41.3793 86.2076 41.3793Z" fill="#333333"/>
<path d="M100 41.3793C101.906 41.3793 103.444 42.9258 103.444 44.8318C103.444 46.7377 101.898 48.2759 100 48.2759C98.1026 48.2759 96.5561 46.7294 96.5561 44.8318C96.5561 42.9342 98.1026 41.3793 100 41.3793Z" fill="#333333"/>
<path d="M113.793 41.3793C115.699 41.3793 117.237 42.9258 117.237 44.8318C117.237 46.7377 115.69 48.2759 113.793 48.2759C111.895 48.2759 110.349 46.7294 110.349 44.8318C110.349 42.9342 111.895 41.3793 113.793 41.3793Z" fill="#333333"/>
<path d="M127.585 41.3793C129.491 41.3793 131.029 42.9258 131.029 44.8318C131.029 46.7377 129.483 48.2759 127.585 48.2759C125.688 48.2759 124.141 46.7294 124.141 44.8318C124.141 42.9342 125.688 41.3793 127.585 41.3793Z" fill="#333333"/>
<path d="M141.378 41.3793C143.284 41.3793 144.822 42.9258 144.822 44.8318C144.822 46.7377 143.275 48.2759 141.378 48.2759C139.48 48.2759 137.934 46.7294 137.934 44.8318C137.934 42.9342 139.48 41.3793 141.378 41.3793Z" fill="#333333"/>
<path d="M79.3114 48.2759C81.2173 48.2759 82.7638 49.8224 82.7638 51.72C82.7638 53.6176 81.2173 55.1641 79.3114 55.1641C77.4054 55.1641 75.8673 53.6176 75.8673 51.72C75.8673 49.8224 77.4138 48.2759 79.3114 48.2759Z" fill="#333333"/>
<path d="M86.2076 48.2759C88.1136 48.2759 89.6517 49.8224 89.6517 51.72C89.6517 53.6176 88.1052 55.1641 86.2076 55.1641C84.3101 55.1641 82.7635 53.6176 82.7635 51.72C82.7635 49.8224 84.3101 48.2759 86.2076 48.2759Z" fill="#333333"/>
<path d="M106.905 48.2759C108.811 48.2759 110.349 49.8224 110.349 51.72C110.349 53.6176 108.802 55.1641 106.905 55.1641C105.007 55.1641 103.461 53.6176 103.461 51.72C103.461 49.8224 105.007 48.2759 106.905 48.2759Z" fill="#333333"/>
<path d="M113.793 48.2759C115.699 48.2759 117.237 49.8224 117.237 51.72C117.237 53.6176 115.69 55.1641 113.793 55.1641C111.895 55.1641 110.349 53.6176 110.349 51.72C110.349 49.8224 111.895 48.2759 113.793 48.2759Z" fill="#333333"/>
<path d="M120.697 48.2759C122.603 48.2759 124.141 49.8224 124.141 51.72C124.141 53.6176 122.595 55.1641 120.697 55.1641C118.8 55.1641 117.253 53.6176 117.253 51.72C117.253 49.8224 118.8 48.2759 120.697 48.2759Z" fill="#333333"/>
<path d="M127.585 48.2759C129.491 48.2759 131.029 49.8224 131.029 51.72C131.029 53.6176 129.483 55.1641 127.585 55.1641C125.688 55.1641 124.141 53.6176 124.141 51.72C124.141 49.8224 125.688 48.2759 127.585 48.2759Z" fill="#333333"/>
<path d="M134.49 48.2759C136.396 48.2759 137.934 49.8224 137.934 51.72C137.934 53.6176 136.387 55.1641 134.49 55.1641C132.592 55.1641 131.046 53.6176 131.046 51.72C131.046 49.8224 132.592 48.2759 134.49 48.2759Z" fill="#333333"/>
<path d="M141.378 48.2759C143.284 48.2759 144.822 49.8224 144.822 51.72C144.822 53.6176 143.275 55.1641 141.378 55.1641C139.48 55.1641 137.934 53.6176 137.934 51.72C137.934 49.8224 139.48 48.2759 141.378 48.2759Z" fill="#333333"/>
<path d="M3.45249 55.1724C5.35845 55.1724 6.89658 56.7189 6.89658 58.6165C6.89658 60.5141 5.35009 62.0606 3.45249 62.0606C1.55489 62.0606 0.00839233 60.5141 0.00839233 58.6165C0.00839233 56.7189 1.55489 55.1724 3.45249 55.1724Z" fill="#333333"/>
<path d="M24.1496 55.1724C26.0556 55.1724 27.5937 56.7189 27.5937 58.6165C27.5937 60.5141 26.0472 62.0606 24.1496 62.0606C22.252 62.0606 20.7055 60.5141 20.7055 58.6165C20.7055 56.7189 22.252 55.1724 24.1496 55.1724Z" fill="#333333"/>
<path d="M37.9338 55.1724C39.8397 55.1724 41.3779 56.7189 41.3779 58.6165C41.3779 60.5141 39.8314 62.0606 37.9338 62.0606C36.0362 62.0606 34.4897 60.5141 34.4897 58.6165C34.4897 56.7189 36.0362 55.1724 37.9338 55.1724Z" fill="#333333"/>
<path d="M44.83 55.1724C46.736 55.1724 48.2741 56.7189 48.2741 58.6165C48.2741 60.5141 46.7276 62.0606 44.83 62.0606C42.9324 62.0606 41.3859 60.5141 41.3859 58.6165C41.3859 56.7189 42.9324 55.1724 44.83 55.1724Z" fill="#333333"/>
<path d="M58.6226 55.1724C60.5285 55.1724 62.0667 56.7189 62.0667 58.6165C62.0667 60.5141 60.5202 62.0606 58.6226 62.0606C56.725 62.0606 55.1785 60.5141 55.1785 58.6165C55.1785 56.7189 56.725 55.1724 58.6226 55.1724Z" fill="#333333"/>
<path d="M79.3114 55.1724C81.2173 55.1724 82.7638 56.7189 82.7638 58.6165C82.7638 60.5141 81.2173 62.0606 79.3114 62.0606C77.4054 62.0606 75.8673 60.5141 75.8673 58.6165C75.8673 56.7189 77.4138 55.1724 79.3114 55.1724Z" fill="#333333"/>
<path d="M86.2076 55.1724C88.1136 55.1724 89.6517 56.7189 89.6517 58.6165C89.6517 60.5141 88.1052 62.0606 86.2076 62.0606C84.3101 62.0606 82.7635 60.5141 82.7635 58.6165C82.7635 56.7189 84.3101 55.1724 86.2076 55.1724Z" fill="#333333"/>
<path d="M93.1123 55.1724C95.0182 55.1724 96.5564 56.7189 96.5564 58.6165C96.5564 60.5141 95.0098 62.0606 93.1123 62.0606C91.2147 62.0606 89.6682 60.5141 89.6682 58.6165C89.6682 56.7189 91.2147 55.1724 93.1123 55.1724Z" fill="#333333"/>
<path d="M134.49 55.1724C136.396 55.1724 137.934 56.7189 137.934 58.6165C137.934 60.5141 136.387 62.0606 134.49 62.0606C132.592 62.0606 131.046 60.5141 131.046 58.6165C131.046 56.7189 132.592 55.1724 134.49 55.1724Z" fill="#333333"/>
<path d="M148.274 55.1724C150.18 55.1724 151.726 56.7189 151.726 58.6165C151.726 60.5141 150.18 62.0606 148.274 62.0606C146.368 62.0606 144.83 60.5141 144.83 58.6165C144.83 56.7189 146.376 55.1724 148.274 55.1724Z" fill="#333333"/>
<path d="M162.067 55.1724C163.972 55.1724 165.511 56.7189 165.511 58.6165C165.511 60.5141 163.964 62.0606 162.067 62.0606C160.169 62.0606 158.622 60.5141 158.622 58.6165C158.622 56.7189 160.169 55.1724 162.067 55.1724Z" fill="#333333"/>
<path d="M10.3571 62.0689C12.263 62.0689 13.8012 63.6154 13.8012 65.513C13.8012 67.4106 12.2547 68.9571 10.3571 68.9571C8.45949 68.9571 6.91299 67.4106 6.91299 65.513C6.91299 63.6154 8.45949 62.0689 10.3571 62.0689Z" fill="#333333"/>
<path d="M31.0376 62.0689C32.9435 62.0689 34.4817 63.6154 34.4817 65.513C34.4817 67.4106 32.9352 68.9571 31.0376 68.9571C29.14 68.9571 27.5935 67.4106 27.5935 65.513C27.5935 63.6154 29.14 62.0689 31.0376 62.0689Z" fill="#333333"/>
<path d="M37.9338 62.0689C39.8397 62.0689 41.3779 63.6154 41.3779 65.513C41.3779 67.4106 39.8314 68.9571 37.9338 68.9571C36.0362 68.9571 34.4897 67.4106 34.4897 65.513C34.4897 63.6154 36.0362 62.0689 37.9338 62.0689Z" fill="#333333"/>
<path d="M51.7264 62.0689C53.6323 62.0689 55.1704 63.6154 55.1704 65.513C55.1704 67.4106 53.624 68.9571 51.7264 68.9571C49.8288 68.9571 48.2823 67.4106 48.2823 65.513C48.2823 63.6154 49.8288 62.0689 51.7264 62.0689Z" fill="#333333"/>
<path d="M58.6226 62.0689C60.5285 62.0689 62.0667 63.6154 62.0667 65.513C62.0667 67.4106 60.5202 68.9571 58.6226 68.9571C56.725 68.9571 55.1785 67.4106 55.1785 65.513C55.1785 63.6154 56.725 62.0689 58.6226 62.0689Z" fill="#333333"/>
<path d="M65.5189 62.0689C67.4248 62.0689 68.9629 63.6154 68.9629 65.513C68.9629 67.4106 67.4164 68.9571 65.5189 68.9571C63.6213 68.9571 62.0748 67.4106 62.0748 65.513C62.0748 63.6154 63.6213 62.0689 65.5189 62.0689Z" fill="#333333"/>
<path d="M86.2076 62.0689C88.1136 62.0689 89.6517 63.6154 89.6517 65.513C89.6517 67.4106 88.1052 68.9571 86.2076 68.9571C84.3101 68.9571 82.7635 67.4106 82.7635 65.513C82.7635 63.6154 84.3101 62.0689 86.2076 62.0689Z" fill="#333333"/>
<path d="M100 62.0689C101.906 62.0689 103.444 63.6154 103.444 65.513C103.444 67.4106 101.898 68.9571 100 68.9571C98.1026 68.9571 96.5561 67.4106 96.5561 65.513C96.5561 63.6154 98.1026 62.0689 100 62.0689Z" fill="#333333"/>
<path d="M120.697 62.0689C122.603 62.0689 124.141 63.6154 124.141 65.513C124.141 67.4106 122.595 68.9571 120.697 68.9571C118.8 68.9571 117.253 67.4106 117.253 65.513C117.253 63.6154 118.8 62.0689 120.697 62.0689Z" fill="#333333"/>
<path d="M127.585 62.0689C129.491 62.0689 131.029 63.6154 131.029 65.513C131.029 67.4106 129.483 68.9571 127.585 68.9571C125.688 68.9571 124.141 67.4106 124.141 65.513C124.141 63.6154 125.688 62.0689 127.585 62.0689Z" fill="#333333"/>
<path d="M141.378 62.0689C143.284 62.0689 144.822 63.6154 144.822 65.513C144.822 67.4106 143.275 68.9571 141.378 68.9571C139.48 68.9571 137.934 67.4106 137.934 65.513C137.934 63.6154 139.48 62.0689 141.378 62.0689Z" fill="#333333"/>
<path d="M148.274 62.0689C150.18 62.0689 151.726 63.6154 151.726 65.513C151.726 67.4106 150.18 68.9571 148.274 68.9571C146.368 68.9571 144.83 67.4106 144.83 65.513C144.83 63.6154 146.376 62.0689 148.274 62.0689Z" fill="#333333"/>
<path d="M155.17 62.0689C157.076 62.0689 158.614 63.6154 158.614 65.513C158.614 67.4106 157.068 68.9571 155.17 68.9571C153.273 68.9571 151.726 67.4106 151.726 65.513C151.726 63.6154 153.273 62.0689 155.17 62.0689Z" fill="#333333"/>
<path d="M162.067 62.0689C163.972 62.0689 165.511 63.6154 165.511 65.513C165.511 67.4106 163.964 68.9571 162.067 68.9571C160.169 68.9571 158.622 67.4106 158.622 65.513C158.622 63.6154 160.169 62.0689 162.067 62.0689Z" fill="#333333"/>
<path d="M175.859 62.0689C177.765 62.0689 179.303 63.6154 179.303 65.513C179.303 67.4106 177.757 68.9571 175.859 68.9571C173.961 68.9571 172.415 67.4106 172.415 65.513C172.415 63.6154 173.961 62.0689 175.859 62.0689Z" fill="#333333"/>
<path d="M196.548 62.0689C198.454 62.0689 199.992 63.6154 199.992 65.513C199.992 67.4106 198.445 68.9571 196.548 68.9571C194.65 68.9571 193.104 67.4106 193.104 65.513C193.104 63.6154 194.65 62.0689 196.548 62.0689Z" fill="#333333"/>
<path d="M10.3571 68.9655C12.263 68.9655 13.8012 70.512 13.8012 72.4096C13.8012 74.3071 12.2547 75.8536 10.3571 75.8536C8.45949 75.8536 6.91299 74.3071 6.91299 72.4096C6.91299 70.512 8.45949 68.9655 10.3571 68.9655Z" fill="#333333"/>
<path d="M44.83 68.9655C46.736 68.9655 48.2741 70.512 48.2741 72.4096C48.2741 74.3071 46.7276 75.8536 44.83 75.8536C42.9324 75.8536 41.3859 74.3071 41.3859 72.4096C41.3859 70.512 42.9324 68.9655 44.83 68.9655Z" fill="#333333"/>
<path d="M58.6226 68.9655C60.5285 68.9655 62.0667 70.512 62.0667 72.4096C62.0667 74.3071 60.5202 75.8536 58.6226 75.8536C56.725 75.8536 55.1785 74.3071 55.1785 72.4096C55.1785 70.512 56.725 68.9655 58.6226 68.9655Z" fill="#333333"/>
<path d="M72.4151 68.9655C74.321 68.9655 75.8592 70.512 75.8592 72.4096C75.8592 74.3071 74.3127 75.8536 72.4151 75.8536C70.5175 75.8536 68.971 74.3071 68.971 72.4096C68.971 70.512 70.5175 68.9655 72.4151 68.9655Z" fill="#333333"/>
<path d="M93.1123 68.9655C95.0182 68.9655 96.5564 70.512 96.5564 72.4096C96.5564 74.3071 95.0098 75.8536 93.1123 75.8536C91.2147 75.8536 89.6682 74.3071 89.6682 72.4096C89.6682 70.512 91.2147 68.9655 93.1123 68.9655Z" fill="#333333"/>
<path d="M100 68.9655C101.906 68.9655 103.444 70.512 103.444 72.4096C103.444 74.3071 101.898 75.8536 100 75.8536C98.1026 75.8536 96.5561 74.3071 96.5561 72.4096C96.5561 70.512 98.1026 68.9655 100 68.9655Z" fill="#333333"/>
<path d="M127.585 68.9655C129.491 68.9655 131.029 70.512 131.029 72.4096C131.029 74.3071 129.483 75.8536 127.585 75.8536C125.688 75.8536 124.141 74.3071 124.141 72.4096C124.141 70.512 125.688 68.9655 127.585 68.9655Z" fill="#333333"/>
<path d="M134.49 68.9655C136.396 68.9655 137.934 70.512 137.934 72.4096C137.934 74.3071 136.387 75.8536 134.49 75.8536C132.592 75.8536 131.046 74.3071 131.046 72.4096C131.046 70.512 132.592 68.9655 134.49 68.9655Z" fill="#333333"/>
<path d="M148.274 68.9655C150.18 68.9655 151.726 70.512 151.726 72.4096C151.726 74.3071 150.18 75.8536 148.274 75.8536C146.368 75.8536 144.83 74.3071 144.83 72.4096C144.83 70.512 146.376 68.9655 148.274 68.9655Z" fill="#333333"/>
<path d="M155.17 68.9655C157.076 68.9655 158.614 70.512 158.614 72.4096C158.614 74.3071 157.068 75.8536 155.17 75.8536C153.273 75.8536 151.726 74.3071 151.726 72.4096C151.726 70.512 153.273 68.9655 155.17 68.9655Z" fill="#333333"/>
<path d="M162.067 68.9655C163.972 68.9655 165.511 70.512 165.511 72.4096C165.511 74.3071 163.964 75.8536 162.067 75.8536C160.169 75.8536 158.622 74.3071 158.622 72.4096C158.622 70.512 160.169 68.9655 162.067 68.9655Z" fill="#333333"/>
<path d="M175.859 68.9655C177.765 68.9655 179.303 70.512 179.303 72.4096C179.303 74.3071 177.757 75.8536 175.859 75.8536C173.961 75.8536 172.415 74.3071 172.415 72.4096C172.415 70.512 173.961 68.9655 175.859 68.9655Z" fill="#333333"/>
<path d="M182.755 68.9655C184.661 68.9655 186.199 70.512 186.199 72.4096C186.199 74.3071 184.653 75.8536 182.755 75.8536C180.858 75.8536 179.311 74.3071 179.311 72.4096C179.311 70.512 180.858 68.9655 182.755 68.9655Z" fill="#333333"/>
<path d="M189.652 68.9655C191.558 68.9655 193.104 70.512 193.104 72.4096C193.104 74.3071 191.558 75.8536 189.652 75.8536C187.746 75.8536 186.207 74.3071 186.207 72.4096C186.207 70.512 187.754 68.9655 189.652 68.9655Z" fill="#333333"/>
<path d="M17.245 75.8621C19.1509 75.8621 20.6891 77.4086 20.6891 79.3062C20.6891 81.2038 19.1426 82.7503 17.245 82.7503C15.3474 82.7503 13.8009 81.2038 13.8009 79.3062C13.8009 77.4086 15.3474 75.8621 17.245 75.8621Z" fill="#333333"/>
<path d="M24.1496 75.8621C26.0556 75.8621 27.5937 77.4086 27.5937 79.3062C27.5937 81.2038 26.0472 82.7503 24.1496 82.7503C22.252 82.7503 20.7055 81.2038 20.7055 79.3062C20.7055 77.4086 22.252 75.8621 24.1496 75.8621Z" fill="#333333"/>
<path d="M37.9338 75.8621C39.8397 75.8621 41.3779 77.4086 41.3779 79.3062C41.3779 81.2038 39.8314 82.7503 37.9338 82.7503C36.0362 82.7503 34.4897 81.2038 34.4897 79.3062C34.4897 77.4086 36.0362 75.8621 37.9338 75.8621Z" fill="#333333"/>
<path d="M58.6226 75.8621C60.5285 75.8621 62.0667 77.4086 62.0667 79.3062C62.0667 81.2038 60.5202 82.7503 58.6226 82.7503C56.725 82.7503 55.1785 81.2038 55.1785 79.3062C55.1785 77.4086 56.725 75.8621 58.6226 75.8621Z" fill="#333333"/>
<path d="M72.4151 75.8621C74.321 75.8621 75.8592 77.4086 75.8592 79.3062C75.8592 81.2038 74.3127 82.7503 72.4151 82.7503C70.5175 82.7503 68.971 81.2038 68.971 79.3062C68.971 77.4086 70.5175 75.8621 72.4151 75.8621Z" fill="#333333"/>
<path d="M79.3114 75.8621C81.2173 75.8621 82.7638 77.4086 82.7638 79.3062C82.7638 81.2038 81.2173 82.7503 79.3114 82.7503C77.4054 82.7503 75.8673 81.2038 75.8673 79.3062C75.8673 77.4086 77.4138 75.8621 79.3114 75.8621Z" fill="#333333"/>
<path d="M93.1123 75.8621C95.0182 75.8621 96.5564 77.4086 96.5564 79.3062C96.5564 81.2038 95.0098 82.7503 93.1123 82.7503C91.2147 82.7503 89.6682 81.2038 89.6682 79.3062C89.6682 77.4086 91.2147 75.8621 93.1123 75.8621Z" fill="#333333"/>
<path d="M100 75.8621C101.906 75.8621 103.444 77.4086 103.444 79.3062C103.444 81.2038 101.898 82.7503 100 82.7503C98.1026 82.7503 96.5561 81.2038 96.5561 79.3062C96.5561 77.4086 98.1026 75.8621 100 75.8621Z" fill="#333333"/>
<path d="M106.905 75.8621C108.811 75.8621 110.349 77.4086 110.349 79.3062C110.349 81.2038 108.802 82.7503 106.905 82.7503C105.007 82.7503 103.461 81.2038 103.461 79.3062C103.461 77.4086 105.007 75.8621 106.905 75.8621Z" fill="#333333"/>
<path d="M113.793 75.8621C115.699 75.8621 117.237 77.4086 117.237 79.3062C117.237 81.2038 115.69 82.7503 113.793 82.7503C111.895 82.7503 110.349 81.2038 110.349 79.3062C110.349 77.4086 111.895 75.8621 113.793 75.8621Z" fill="#333333"/>
<path d="M141.378 75.8621C143.284 75.8621 144.822 77.4086 144.822 79.3062C144.822 81.2038 143.275 82.7503 141.378 82.7503C139.48 82.7503 137.934 81.2038 137.934 79.3062C137.934 77.4086 139.48 75.8621 141.378 75.8621Z" fill="#333333"/>
<path d="M148.274 75.8621C150.18 75.8621 151.726 77.4086 151.726 79.3062C151.726 81.2038 150.18 82.7503 148.274 82.7503C146.368 82.7503 144.83 81.2038 144.83 79.3062C144.83 77.4086 146.376 75.8621 148.274 75.8621Z" fill="#333333"/>
<path d="M155.17 75.8621C157.076 75.8621 158.614 77.4086 158.614 79.3062C158.614 81.2038 157.068 82.7503 155.17 82.7503C153.273 82.7503 151.726 81.2038 151.726 79.3062C151.726 77.4086 153.273 75.8621 155.17 75.8621Z" fill="#333333"/>
<path d="M182.755 75.8621C184.661 75.8621 186.199 77.4086 186.199 79.3062C186.199 81.2038 184.653 82.7503 182.755 82.7503C180.858 82.7503 179.311 81.2038 179.311 79.3062C179.311 77.4086 180.858 75.8621 182.755 75.8621Z" fill="#333333"/>
<path d="M189.652 75.8621C191.558 75.8621 193.104 77.4086 193.104 79.3062C193.104 81.2038 191.558 82.7503 189.652 82.7503C187.746 82.7503 186.207 81.2038 186.207 79.3062C186.207 77.4086 187.754 75.8621 189.652 75.8621Z" fill="#333333"/>
<path d="M17.245 82.7587C19.1509 82.7587 20.6891 84.3052 20.6891 86.2028C20.6891 88.1004 19.1426 89.6469 17.245 89.6469C15.3474 89.6469 13.8009 88.1004 13.8009 86.2028C13.8009 84.3052 15.3474 82.7587 17.245 82.7587Z" fill="#333333"/>
<path d="M31.0376 82.7587C32.9435 82.7587 34.4817 84.3052 34.4817 86.2028C34.4817 88.1004 32.9352 89.6469 31.0376 89.6469C29.14 89.6469 27.5935 88.1004 27.5935 86.2028C27.5935 84.3052 29.14 82.7587 31.0376 82.7587Z" fill="#333333"/>
<path d="M37.9338 82.7587C39.8397 82.7587 41.3779 84.3052 41.3779 86.2028C41.3779 88.1004 39.8314 89.6469 37.9338 89.6469C36.0362 89.6469 34.4897 88.1004 34.4897 86.2028C34.4897 84.3052 36.0362 82.7587 37.9338 82.7587Z" fill="#333333"/>
<path d="M44.83 82.7587C46.736 82.7587 48.2741 84.3052 48.2741 86.2028C48.2741 88.1004 46.7276 89.6469 44.83 89.6469C42.9324 89.6469 41.3859 88.1004 41.3859 86.2028C41.3859 84.3052 42.9324 82.7587 44.83 82.7587Z" fill="#333333"/>
<path d="M65.5189 82.7587C67.4248 82.7587 68.9629 84.3052 68.9629 86.2028C68.9629 88.1004 67.4164 89.6469 65.5189 89.6469C63.6213 89.6469 62.0748 88.1004 62.0748 86.2028C62.0748 84.3052 63.6213 82.7587 65.5189 82.7587Z" fill="#333333"/>
<path d="M72.4151 82.7587C74.321 82.7587 75.8592 84.3052 75.8592 86.2028C75.8592 88.1004 74.3127 89.6469 72.4151 89.6469C70.5175 89.6469 68.971 88.1004 68.971 86.2028C68.971 84.3052 70.5175 82.7587 72.4151 82.7587Z" fill="#333333"/>
<path d="M79.3114 82.7587C81.2173 82.7587 82.7638 84.3052 82.7638 86.2028C82.7638 88.1004 81.2173 89.6469 79.3114 89.6469C77.4054 89.6469 75.8673 88.1004 75.8673 86.2028C75.8673 84.3052 77.4138 82.7587 79.3114 82.7587Z" fill="#333333"/>
<path d="M100 82.7587C101.906 82.7587 103.444 84.3052 103.444 86.2028C103.444 88.1004 101.898 89.6469 100 89.6469C98.1026 89.6469 96.5561 88.1004 96.5561 86.2028C96.5561 84.3052 98.1026 82.7587 100 82.7587Z" fill="#333333"/>
<path d="M120.697 82.7587C122.603 82.7587 124.141 84.3052 124.141 86.2028C124.141 88.1004 122.595 89.6469 120.697 89.6469C118.8 89.6469 117.253 88.1004 117.253 86.2028C117.253 84.3052 118.8 82.7587 120.697 82.7587Z" fill="#333333"/>
<path d="M141.378 82.7587C143.284 82.7587 144.822 84.3052 144.822 86.2028C144.822 88.1004 143.275 89.6469 141.378 89.6469C139.48 89.6469 137.934 88.1004 137.934 86.2028C137.934 84.3052 139.48 82.7587 141.378 82.7587Z" fill="#333333"/>
<path d="M148.274 82.7587C150.18 82.7587 151.726 84.3052 151.726 86.2028C151.726 88.1004 150.18 89.6469 148.274 89.6469C146.368 89.6469 144.83 88.1004 144.83 86.2028C144.83 84.3052 146.376 82.7587 148.274 82.7587Z" fill="#333333"/>
<path d="M155.17 82.7587C157.076 82.7587 158.614 84.3052 158.614 86.2028C158.614 88.1004 157.068 89.6469 155.17 89.6469C153.273 89.6469 151.726 88.1004 151.726 86.2028C151.726 84.3052 153.273 82.7587 155.17 82.7587Z" fill="#333333"/>
<path d="M162.067 82.7587C163.972 82.7587 165.511 84.3052 165.511 86.2028C165.511 88.1004 163.964 89.6469 162.067 89.6469C160.169 89.6469 158.622 88.1004 158.622 86.2028C158.622 84.3052 160.169 82.7587 162.067 82.7587Z" fill="#333333"/>
<path d="M175.859 82.7587C177.765 82.7587 179.303 84.3052 179.303 86.2028C179.303 88.1004 177.757 89.6469 175.859 89.6469C173.961 89.6469 172.415 88.1004 172.415 86.2028C172.415 84.3052 173.961 82.7587 175.859 82.7587Z" fill="#333333"/>
<path d="M189.652 82.7587C191.558 82.7587 193.104 84.3052 193.104 86.2028C193.104 88.1004 191.558 89.6469 189.652 89.6469C187.746 89.6469 186.207 88.1004 186.207 86.2028C186.207 84.3052 187.754 82.7587 189.652 82.7587Z" fill="#333333"/>
<path d="M196.548 82.7587C198.454 82.7587 199.992 84.3052 199.992 86.2028C199.992 88.1004 198.445 89.6469 196.548 89.6469C194.65 89.6469 193.104 88.1004 193.104 86.2028C193.104 84.3052 194.65 82.7587 196.548 82.7587Z" fill="#333333"/>
<path d="M3.45249 89.6552C5.35845 89.6552 6.89658 91.2017 6.89658 93.0993C6.89658 94.9969 5.35009 96.5434 3.45249 96.5434C1.55489 96.5434 0.00839233 94.9969 0.00839233 93.0993C0.00839233 91.2017 1.55489 89.6552 3.45249 89.6552Z" fill="#333333"/>
<path d="M10.3571 89.6552C12.263 89.6552 13.8012 91.2017 13.8012 93.0993C13.8012 94.9969 12.2547 96.5434 10.3571 96.5434C8.45949 96.5434 6.91299 94.9969 6.91299 93.0993C6.91299 91.2017 8.45949 89.6552 10.3571 89.6552Z" fill="#333333"/>
<path d="M24.1496 89.6552C26.0556 89.6552 27.5937 91.2017 27.5937 93.0993C27.5937 94.9969 26.0472 96.5434 24.1496 96.5434C22.252 96.5434 20.7055 94.9969 20.7055 93.0993C20.7055 91.2017 22.252 89.6552 24.1496 89.6552Z" fill="#333333"/>
<path d="M31.0376 89.6552C32.9435 89.6552 34.4817 91.2017 34.4817 93.0993C34.4817 94.9969 32.9352 96.5434 31.0376 96.5434C29.14 96.5434 27.5935 94.9969 27.5935 93.0993C27.5935 91.2017 29.14 89.6552 31.0376 89.6552Z" fill="#333333"/>
<path d="M65.5189 89.6552C67.4248 89.6552 68.9629 91.2017 68.9629 93.0993C68.9629 94.9969 67.4164 96.5434 65.5189 96.5434C63.6213 96.5434 62.0748 94.9969 62.0748 93.0993C62.0748 91.2017 63.6213 89.6552 65.5189 89.6552Z" fill="#333333"/>
<path d="M79.3114 89.6552C81.2173 89.6552 82.7638 91.2017 82.7638 93.0993C82.7638 94.9969 81.2173 96.5434 79.3114 96.5434C77.4054 96.5434 75.8673 94.9969 75.8673 93.0993C75.8673 91.2017 77.4138 89.6552 79.3114 89.6552Z" fill="#333333"/>
<path d="M86.2076 89.6552C88.1136 89.6552 89.6517 91.2017 89.6517 93.0993C89.6517 94.9969 88.1052 96.5434 86.2076 96.5434C84.3101 96.5434 82.7635 94.9969 82.7635 93.0993C82.7635 91.2017 84.3101 89.6552 86.2076 89.6552Z" fill="#333333"/>
<path d="M93.1123 89.6552C95.0182 89.6552 96.5564 91.2017 96.5564 93.0993C96.5564 94.9969 95.0098 96.5434 93.1123 96.5434C91.2147 96.5434 89.6682 94.9969 89.6682 93.0993C89.6682 91.2017 91.2147 89.6552 93.1123 89.6552Z" fill="#333333"/>
<path d="M113.793 89.6552C115.699 89.6552 117.237 91.2017 117.237 93.0993C117.237 94.9969 115.69 96.5434 113.793 96.5434C111.895 96.5434 110.349 94.9969 110.349 93.0993C110.349 91.2017 111.895 89.6552 113.793 89.6552Z" fill="#333333"/>
<path d="M120.697 89.6552C122.603 89.6552 124.141 91.2017 124.141 93.0993C124.141 94.9969 122.595 96.5434 120.697 96.5434C118.8 96.5434 117.253 94.9969 117.253 93.0993C117.253 91.2017 118.8 89.6552 120.697 89.6552Z" fill="#333333"/>
<path d="M127.585 89.6552C129.491 89.6552 131.029 91.2017 131.029 93.0993C131.029 94.9969 129.483 96.5434 127.585 96.5434C125.688 96.5434 124.141 94.9969 124.141 93.0993C124.141 91.2017 125.688 89.6552 127.585 89.6552Z" fill="#333333"/>
<path d="M134.49 89.6552C136.396 89.6552 137.934 91.2017 137.934 93.0993C137.934 94.9969 136.387 96.5434 134.49 96.5434C132.592 96.5434 131.046 94.9969 131.046 93.0993C131.046 91.2017 132.592 89.6552 134.49 89.6552Z" fill="#333333"/>
<path d="M141.378 89.6552C143.284 89.6552 144.822 91.2017 144.822 93.0993C144.822 94.9969 143.275 96.5434 141.378 96.5434C139.48 96.5434 137.934 94.9969 137.934 93.0993C137.934 91.2017 139.48 89.6552 141.378 89.6552Z" fill="#333333"/>
<path d="M148.274 89.6552C150.18 89.6552 151.726 91.2017 151.726 93.0993C151.726 94.9969 150.18 96.5434 148.274 96.5434C146.368 96.5434 144.83 94.9969 144.83 93.0993C144.83 91.2017 146.376 89.6552 148.274 89.6552Z" fill="#333333"/>
<path d="M10.3571 96.5517C12.263 96.5517 13.8012 98.0982 13.8012 99.9958C13.8012 101.893 12.2547 103.44 10.3571 103.44C8.45949 103.44 6.91299 101.893 6.91299 99.9958C6.91299 98.0982 8.45949 96.5517 10.3571 96.5517Z" fill="#333333"/>
<path d="M17.245 96.5517C19.1509 96.5517 20.6891 98.0982 20.6891 99.9958C20.6891 101.893 19.1426 103.44 17.245 103.44C15.3474 103.44 13.8009 101.893 13.8009 99.9958C13.8009 98.0982 15.3474 96.5517 17.245 96.5517Z" fill="#333333"/>
<path d="M37.9338 96.5517C39.8397 96.5517 41.3779 98.0982 41.3779 99.9958C41.3779 101.893 39.8314 103.44 37.9338 103.44C36.0362 103.44 34.4897 101.893 34.4897 99.9958C34.4897 98.0982 36.0362 96.5517 37.9338 96.5517Z" fill="#333333"/>
<path d="M44.83 96.5517C46.736 96.5517 48.2741 98.0982 48.2741 99.9958C48.2741 101.893 46.7276 103.44 44.83 103.44C42.9324 103.44 41.3859 101.893 41.3859 99.9958C41.3859 98.0982 42.9324 96.5517 44.83 96.5517Z" fill="#333333"/>
<path d="M58.6226 96.5517C60.5285 96.5517 62.0667 98.0982 62.0667 99.9958C62.0667 101.893 60.5202 103.44 58.6226 103.44C56.725 103.44 55.1785 101.893 55.1785 99.9958C55.1785 98.0982 56.725 96.5517 58.6226 96.5517Z" fill="#333333"/>
<path d="M72.4151 96.5517C74.321 96.5517 75.8592 98.0982 75.8592 99.9958C75.8592 101.893 74.3127 103.44 72.4151 103.44C70.5175 103.44 68.971 101.893 68.971 99.9958C68.971 98.0982 70.5175 96.5517 72.4151 96.5517Z" fill="#333333"/>
<path d="M86.2076 96.5517C88.1136 96.5517 89.6517 98.0982 89.6517 99.9958C89.6517 101.893 88.1052 103.44 86.2076 103.44C84.3101 103.44 82.7635 101.893 82.7635 99.9958C82.7635 98.0982 84.3101 96.5517 86.2076 96.5517Z" fill="#333333"/>
<path d="M93.1123 96.5517C95.0182 96.5517 96.5564 98.0982 96.5564 99.9958C96.5564 101.893 95.0098 103.44 93.1123 103.44C91.2147 103.44 89.6682 101.893 89.6682 99.9958C89.6682 98.0982 91.2147 96.5517 93.1123 96.5517Z" fill="#333333"/>
<path d="M100 96.5517C101.906 96.5517 103.444 98.0982 103.444 99.9958C103.444 101.893 101.898 103.44 100 103.44C98.1026 103.44 96.5561 101.893 96.5561 99.9958C96.5561 98.0982 98.1026 96.5517 100 96.5517Z" fill="#333333"/>
<path d="M120.697 96.5517C122.603 96.5517 124.141 98.0982 124.141 99.9958C124.141 101.893 122.595 103.44 120.697 103.44C118.8 103.44 117.253 101.893 117.253 99.9958C117.253 98.0982 118.8 96.5517 120.697 96.5517Z" fill="#333333"/>
<path d="M127.585 96.5517C129.491 96.5517 131.029 98.0982 131.029 99.9958C131.029 101.893 129.483 103.44 127.585 103.44C125.688 103.44 124.141 101.893 124.141 99.9958C124.141 98.0982 125.688 96.5517 127.585 96.5517Z" fill="#333333"/>
<path d="M155.17 96.5517C157.076 96.5517 158.614 98.0982 158.614 99.9958C158.614 101.893 157.068 103.44 155.17 103.44C153.273 103.44 151.726 101.893 151.726 99.9958C151.726 98.0982 153.273 96.5517 155.17 96.5517Z" fill="#333333"/>
<path d="M162.067 96.5517C163.972 96.5517 165.511 98.0982 165.511 99.9958C165.511 101.893 163.964 103.44 162.067 103.44C160.169 103.44 158.622 101.893 158.622 99.9958C158.622 98.0982 160.169 96.5517 162.067 96.5517Z" fill="#333333"/>
<path d="M168.963 96.5517C170.869 96.5517 172.407 98.0982 172.407 99.9958C172.407 101.893 170.86 103.44 168.963 103.44C167.065 103.44 165.519 101.893 165.519 99.9958C165.519 98.0982 167.065 96.5517 168.963 96.5517Z" fill="#333333"/>
<path d="M175.859 96.5517C177.765 96.5517 179.303 98.0982 179.303 99.9958C179.303 101.893 177.757 103.44 175.859 103.44C173.961 103.44 172.415 101.893 172.415 99.9958C172.415 98.0982 173.961 96.5517 175.859 96.5517Z" fill="#333333"/>
<path d="M182.755 96.5517C184.661 96.5517 186.199 98.0982 186.199 99.9958C186.199 101.893 184.653 103.44 182.755 103.44C180.858 103.44 179.311 101.893 179.311 99.9958C179.311 98.0982 180.858 96.5517 182.755 96.5517Z" fill="#333333"/>
<path d="M189.652 96.5517C191.558 96.5517 193.104 98.0982 193.104 99.9958C193.104 101.893 191.558 103.44 189.652 103.44C187.746 103.44 186.207 101.893 186.207 99.9958C186.207 98.0982 187.754 96.5517 189.652 96.5517Z" fill="#333333"/>
<path d="M196.548 96.5517C198.454 96.5517 199.992 98.0982 199.992 99.9958C199.992 101.893 198.445 103.44 196.548 103.44C194.65 103.44 193.104 101.893 193.104 99.9958C193.104 98.0982 194.65 96.5517 196.548 96.5517Z" fill="#333333"/>
<path d="M17.245 103.448C19.1509 103.448 20.6891 104.995 20.6891 106.892C20.6891 108.79 19.1426 110.336 17.245 110.336C15.3474 110.336 13.8009 108.79 13.8009 106.892C13.8009 104.995 15.3474 103.448 17.245 103.448Z" fill="#333333"/>
<path d="M31.0376 103.448C32.9435 103.448 34.4817 104.995 34.4817 106.892C34.4817 108.79 32.9352 110.336 31.0376 110.336C29.14 110.336 27.5935 108.79 27.5935 106.892C27.5935 104.995 29.14 103.448 31.0376 103.448Z" fill="#333333"/>
<path d="M58.6226 103.448C60.5285 103.448 62.0667 104.995 62.0667 106.892C62.0667 108.79 60.5202 110.336 58.6226 110.336C56.725 110.336 55.1785 108.79 55.1785 106.892C55.1785 104.995 56.725 103.448 58.6226 103.448Z" fill="#333333"/>
<path d="M86.2076 103.448C88.1136 103.448 89.6517 104.995 89.6517 106.892C89.6517 108.79 88.1052 110.336 86.2076 110.336C84.3101 110.336 82.7635 108.79 82.7635 106.892C82.7635 104.995 84.3101 103.448 86.2076 103.448Z" fill="#333333"/>
<path d="M106.905 103.448C108.811 103.448 110.349 104.995 110.349 106.892C110.349 108.79 108.802 110.336 106.905 110.336C105.007 110.336 103.461 108.79 103.461 106.892C103.461 104.995 105.007 103.448 106.905 103.448Z" fill="#333333"/>
<path d="M120.697 103.448C122.603 103.448 124.141 104.995 124.141 106.892C124.141 108.79 122.595 110.336 120.697 110.336C118.8 110.336 117.253 108.79 117.253 106.892C117.253 104.995 118.8 103.448 120.697 103.448Z" fill="#333333"/>
<path d="M141.378 103.448C143.284 103.448 144.822 104.995 144.822 106.892C144.822 108.79 143.275 110.336 141.378 110.336C139.48 110.336 137.934 108.79 137.934 106.892C137.934 104.995 139.48 103.448 141.378 103.448Z" fill="#333333"/>
<path d="M162.067 103.448C163.972 103.448 165.511 104.995 165.511 106.892C165.511 108.79 163.964 110.336 162.067 110.336C160.169 110.336 158.622 108.79 158.622 106.892C158.622 104.995 160.169 103.448 162.067 103.448Z" fill="#333333"/>
<path d="M175.859 103.448C177.765 103.448 179.303 104.995 179.303 106.892C179.303 108.79 177.757 110.336 175.859 110.336C173.961 110.336 172.415 108.79 172.415 106.892C172.415 104.995 173.961 103.448 175.859 103.448Z" fill="#333333"/>
<path d="M189.652 103.448C191.558 103.448 193.104 104.995 193.104 106.892C193.104 108.79 191.558 110.336 189.652 110.336C187.746 110.336 186.207 108.79 186.207 106.892C186.207 104.995 187.754 103.448 189.652 103.448Z" fill="#333333"/>
<path d="M17.245 110.345C19.1509 110.345 20.6891 111.891 20.6891 113.789C20.6891 115.686 19.1426 117.233 17.245 117.233C15.3474 117.233 13.8009 115.686 13.8009 113.789C13.8009 111.891 15.3474 110.345 17.245 110.345Z" fill="#333333"/>
<path d="M37.9338 110.345C39.8397 110.345 41.3779 111.891 41.3779 113.789C41.3779 115.686 39.8314 117.233 37.9338 117.233C36.0362 117.233 34.4897 115.686 34.4897 113.789C34.4897 111.891 36.0362 110.345 37.9338 110.345Z" fill="#333333"/>
<path d="M44.83 110.345C46.736 110.345 48.2741 111.891 48.2741 113.789C48.2741 115.686 46.7276 117.233 44.83 117.233C42.9324 117.233 41.3859 115.686 41.3859 113.789C41.3859 111.891 42.9324 110.345 44.83 110.345Z" fill="#333333"/>
<path d="M51.7264 110.345C53.6323 110.345 55.1704 111.891 55.1704 113.789C55.1704 115.686 53.624 117.233 51.7264 117.233C49.8288 117.233 48.2823 115.686 48.2823 113.789C48.2823 111.891 49.8288 110.345 51.7264 110.345Z" fill="#333333"/>
<path d="M72.4151 110.345C74.321 110.345 75.8592 111.891 75.8592 113.789C75.8592 115.686 74.3127 117.233 72.4151 117.233C70.5175 117.233 68.971 115.686 68.971 113.789C68.971 111.891 70.5175 110.345 72.4151 110.345Z" fill="#333333"/>
<path d="M93.1123 110.345C95.0182 110.345 96.5564 111.891 96.5564 113.789C96.5564 115.686 95.0098 117.233 93.1123 117.233C91.2147 117.233 89.6682 115.686 89.6682 113.789C89.6682 111.891 91.2147 110.345 93.1123 110.345Z" fill="#333333"/>
<path d="M106.905 110.345C108.811 110.345 110.349 111.891 110.349 113.789C110.349 115.686 108.802 117.233 106.905 117.233C105.007 117.233 103.461 115.686 103.461 113.789C103.461 111.891 105.007 110.345 106.905 110.345Z" fill="#333333"/>
<path d="M113.793 110.345C115.699 110.345 117.237 111.891 117.237 113.789C117.237 115.686 115.69 117.233 113.793 117.233C111.895 117.233 110.349 115.686 110.349 113.789C110.349 111.891 111.895 110.345 113.793 110.345Z" fill="#333333"/>
<path d="M120.697 110.345C122.603 110.345 124.141 111.891 124.141 113.789C124.141 115.686 122.595 117.233 120.697 117.233C118.8 117.233 117.253 115.686 117.253 113.789C117.253 111.891 118.8 110.345 120.697 110.345Z" fill="#333333"/>
<path d="M127.585 110.345C129.491 110.345 131.029 111.891 131.029 113.789C131.029 115.686 129.483 117.233 127.585 117.233C125.688 117.233 124.141 115.686 124.141 113.789C124.141 111.891 125.688 110.345 127.585 110.345Z" fill="#333333"/>
<path d="M141.378 110.345C143.284 110.345 144.822 111.891 144.822 113.789C144.822 115.686 143.275 117.233 141.378 117.233C139.48 117.233 137.934 115.686 137.934 113.789C137.934 111.891 139.48 110.345 141.378 110.345Z" fill="#333333"/>
<path d="M148.274 110.345C150.18 110.345 151.726 111.891 151.726 113.789C151.726 115.686 150.18 117.233 148.274 117.233C146.368 117.233 144.83 115.686 144.83 113.789C144.83 111.891 146.376 110.345 148.274 110.345Z" fill="#333333"/>
<path d="M162.067 110.345C163.972 110.345 165.511 111.891 165.511 113.789C165.511 115.686 163.964 117.233 162.067 117.233C160.169 117.233 158.622 115.686 158.622 113.789C158.622 111.891 160.169 110.345 162.067 110.345Z" fill="#333333"/>
<path d="M189.652 110.345C191.558 110.345 193.104 111.891 193.104 113.789C193.104 115.686 191.558 117.233 189.652 117.233C187.746 117.233 186.207 115.686 186.207 113.789C186.207 111.891 187.754 110.345 189.652 110.345Z" fill="#333333"/>
<path d="M10.3571 117.241C12.263 117.241 13.8012 118.788 13.8012 120.685C13.8012 122.583 12.2547 124.13 10.3571 124.13C8.45949 124.13 6.91299 122.583 6.91299 120.685C6.91299 118.788 8.45949 117.241 10.3571 117.241Z" fill="#333333"/>
<path d="M17.245 117.241C19.1509 117.241 20.6891 118.788 20.6891 120.685C20.6891 122.583 19.1426 124.13 17.245 124.13C15.3474 124.13 13.8009 122.583 13.8009 120.685C13.8009 118.788 15.3474 117.241 17.245 117.241Z" fill="#333333"/>
<path d="M24.1496 117.241C26.0556 117.241 27.5937 118.788 27.5937 120.685C27.5937 122.583 26.0472 124.13 24.1496 124.13C22.252 124.13 20.7055 122.583 20.7055 120.685C20.7055 118.788 22.252 117.241 24.1496 117.241Z" fill="#333333"/>
<path d="M31.0376 117.241C32.9435 117.241 34.4817 118.788 34.4817 120.685C34.4817 122.583 32.9352 124.13 31.0376 124.13C29.14 124.13 27.5935 122.583 27.5935 120.685C27.5935 118.788 29.14 117.241 31.0376 117.241Z" fill="#333333"/>
<path d="M37.9338 117.241C39.8397 117.241 41.3779 118.788 41.3779 120.685C41.3779 122.583 39.8314 124.13 37.9338 124.13C36.0362 124.13 34.4897 122.583 34.4897 120.685C34.4897 118.788 36.0362 117.241 37.9338 117.241Z" fill="#333333"/>
<path d="M51.7264 117.241C53.6323 117.241 55.1704 118.788 55.1704 120.685C55.1704 122.583 53.624 124.13 51.7264 124.13C49.8288 124.13 48.2823 122.583 48.2823 120.685C48.2823 118.788 49.8288 117.241 51.7264 117.241Z" fill="#333333"/>
<path d="M72.4151 117.241C74.321 117.241 75.8592 118.788 75.8592 120.685C75.8592 122.583 74.3127 124.13 72.4151 124.13C70.5175 124.13 68.971 122.583 68.971 120.685C68.971 118.788 70.5175 117.241 72.4151 117.241Z" fill="#333333"/>
<path d="M79.3114 117.241C81.2173 117.241 82.7638 118.788 82.7638 120.685C82.7638 122.583 81.2173 124.13 79.3114 124.13C77.4054 124.13 75.8673 122.583 75.8673 120.685C75.8673 118.788 77.4138 117.241 79.3114 117.241Z" fill="#333333"/>
<path d="M93.1123 117.241C95.0182 117.241 96.5564 118.788 96.5564 120.685C96.5564 122.583 95.0098 124.13 93.1123 124.13C91.2147 124.13 89.6682 122.583 89.6682 120.685C89.6682 118.788 91.2147 117.241 93.1123 117.241Z" fill="#333333"/>
<path d="M100 117.241C101.906 117.241 103.444 118.788 103.444 120.685C103.444 122.583 101.898 124.13 100 124.13C98.1026 124.13 96.5561 122.583 96.5561 120.685C96.5561 118.788 98.1026 117.241 100 117.241Z" fill="#333333"/>
<path d="M120.697 117.241C122.603 117.241 124.141 118.788 124.141 120.685C124.141 122.583 122.595 124.13 120.697 124.13C118.8 124.13 117.253 122.583 117.253 120.685C117.253 118.788 118.8 117.241 120.697 117.241Z" fill="#333333"/>
<path d="M141.378 117.241C143.284 117.241 144.822 118.788 144.822 120.685C144.822 122.583 143.275 124.13 141.378 124.13C139.48 124.13 137.934 122.583 137.934 120.685C137.934 118.788 139.48 117.241 141.378 117.241Z" fill="#333333"/>
<path d="M155.17 117.241C157.076 117.241 158.614 118.788 158.614 120.685C158.614 122.583 157.068 124.13 155.17 124.13C153.273 124.13 151.726 122.583 151.726 120.685C151.726 118.788 153.273 117.241 155.17 117.241Z" fill="#333333"/>
<path d="M162.067 117.241C163.972 117.241 165.511 118.788 165.511 120.685C165.511 122.583 163.964 124.13 162.067 124.13C160.169 124.13 158.622 122.583 158.622 120.685C158.622 118.788 160.169 117.241 162.067 117.241Z" fill="#333333"/>
<path d="M175.859 117.241C177.765 117.241 179.303 118.788 179.303 120.685C179.303 122.583 177.757 124.13 175.859 124.13C173.961 124.13 172.415 122.583 172.415 120.685C172.415 118.788 173.961 117.241 175.859 117.241Z" fill="#333333"/>
<path d="M196.548 117.241C198.454 117.241 199.992 118.788 199.992 120.685C199.992 122.583 198.445 124.13 196.548 124.13C194.65 124.13 193.104 122.583 193.104 120.685C193.104 118.788 194.65 117.241 196.548 117.241Z" fill="#333333"/>
<path d="M3.45249 124.138C5.35845 124.138 6.89658 125.684 6.89658 127.582C6.89658 129.48 5.35009 131.026 3.45249 131.026C1.55489 131.026 0.00839233 129.48 0.00839233 127.582C0.00839233 125.684 1.55489 124.138 3.45249 124.138Z" fill="#333333"/>
<path d="M17.245 124.138C19.1509 124.138 20.6891 125.684 20.6891 127.582C20.6891 129.48 19.1426 131.026 17.245 131.026C15.3474 131.026 13.8009 129.48 13.8009 127.582C13.8009 125.684 15.3474 124.138 17.245 124.138Z" fill="#333333"/>
<path d="M44.83 124.138C46.736 124.138 48.2741 125.684 48.2741 127.582C48.2741 129.48 46.7276 131.026 44.83 131.026C42.9324 131.026 41.3859 129.48 41.3859 127.582C41.3859 125.684 42.9324 124.138 44.83 124.138Z" fill="#333333"/>
<path d="M51.7264 124.138C53.6323 124.138 55.1704 125.684 55.1704 127.582C55.1704 129.48 53.624 131.026 51.7264 131.026C49.8288 131.026 48.2823 129.48 48.2823 127.582C48.2823 125.684 49.8288 124.138 51.7264 124.138Z" fill="#333333"/>
<path d="M58.6226 124.138C60.5285 124.138 62.0667 125.684 62.0667 127.582C62.0667 129.48 60.5202 131.026 58.6226 131.026C56.725 131.026 55.1785 129.48 55.1785 127.582C55.1785 125.684 56.725 124.138 58.6226 124.138Z" fill="#333333"/>
<path d="M65.5189 124.138C67.4248 124.138 68.9629 125.684 68.9629 127.582C68.9629 129.48 67.4164 131.026 65.5189 131.026C63.6213 131.026 62.0748 129.48 62.0748 127.582C62.0748 125.684 63.6213 124.138 65.5189 124.138Z" fill="#333333"/>
<path d="M72.4151 124.138C74.321 124.138 75.8592 125.684 75.8592 127.582C75.8592 129.48 74.3127 131.026 72.4151 131.026C70.5175 131.026 68.971 129.48 68.971 127.582C68.971 125.684 70.5175 124.138 72.4151 124.138Z" fill="#333333"/>
<path d="M100 124.138C101.906 124.138 103.444 125.684 103.444 127.582C103.444 129.48 101.898 131.026 100 131.026C98.1026 131.026 96.5561 129.48 96.5561 127.582C96.5561 125.684 98.1026 124.138 100 124.138Z" fill="#333333"/>
<path d="M120.697 124.138C122.603 124.138 124.141 125.684 124.141 127.582C124.141 129.48 122.595 131.026 120.697 131.026C118.8 131.026 117.253 129.48 117.253 127.582C117.253 125.684 118.8 124.138 120.697 124.138Z" fill="#333333"/>
<path d="M155.17 124.138C157.076 124.138 158.614 125.684 158.614 127.582C158.614 129.48 157.068 131.026 155.17 131.026C153.273 131.026 151.726 129.48 151.726 127.582C151.726 125.684 153.273 124.138 155.17 124.138Z" fill="#333333"/>
<path d="M168.963 124.138C170.869 124.138 172.407 125.684 172.407 127.582C172.407 129.48 170.86 131.026 168.963 131.026C167.065 131.026 165.519 129.48 165.519 127.582C165.519 125.684 167.065 124.138 168.963 124.138Z" fill="#333333"/>
<path d="M189.652 124.138C191.558 124.138 193.104 125.684 193.104 127.582C193.104 129.48 191.558 131.026 189.652 131.026C187.746 131.026 186.207 129.48 186.207 127.582C186.207 125.684 187.754 124.138 189.652 124.138Z" fill="#333333"/>
<path d="M196.548 124.138C198.454 124.138 199.992 125.684 199.992 127.582C199.992 129.48 198.445 131.026 196.548 131.026C194.65 131.026 193.104 129.48 193.104 127.582C193.104 125.684 194.65 124.138 196.548 124.138Z" fill="#333333"/>
<path d="M17.245 131.035C19.1509 131.035 20.6891 132.581 20.6891 134.479C20.6891 136.376 19.1426 137.923 17.245 137.923C15.3474 137.923 13.8009 136.376 13.8009 134.479C13.8009 132.581 15.3474 131.035 17.245 131.035Z" fill="#333333"/>
<path d="M24.1496 131.035C26.0556 131.035 27.5937 132.581 27.5937 134.479C27.5937 136.376 26.0472 137.923 24.1496 137.923C22.252 137.923 20.7055 136.376 20.7055 134.479C20.7055 132.581 22.252 131.035 24.1496 131.035Z" fill="#333333"/>
<path d="M37.9338 131.035C39.8397 131.035 41.3779 132.581 41.3779 134.479C41.3779 136.376 39.8314 137.923 37.9338 137.923C36.0362 137.923 34.4897 136.376 34.4897 134.479C34.4897 132.581 36.0362 131.035 37.9338 131.035Z" fill="#333333"/>
<path d="M51.7264 131.035C53.6323 131.035 55.1704 132.581 55.1704 134.479C55.1704 136.376 53.624 137.923 51.7264 137.923C49.8288 137.923 48.2823 136.376 48.2823 134.479C48.2823 132.581 49.8288 131.035 51.7264 131.035Z" fill="#333333"/>
<path d="M58.6226 131.035C60.5285 131.035 62.0667 132.581 62.0667 134.479C62.0667 136.376 60.5202 137.923 58.6226 137.923C56.725 137.923 55.1785 136.376 55.1785 134.479C55.1785 132.581 56.725 131.035 58.6226 131.035Z" fill="#333333"/>
<path d="M86.2076 131.035C88.1136 131.035 89.6517 132.581 89.6517 134.479C89.6517 136.376 88.1052 137.923 86.2076 137.923C84.3101 137.923 82.7635 136.376 82.7635 134.479C82.7635 132.581 84.3101 131.035 86.2076 131.035Z" fill="#333333"/>
<path d="M100 131.035C101.906 131.035 103.444 132.581 103.444 134.479C103.444 136.376 101.898 137.923 100 137.923C98.1026 137.923 96.5561 136.376 96.5561 134.479C96.5561 132.581 98.1026 131.035 100 131.035Z" fill="#333333"/>
<path d="M106.905 131.035C108.811 131.035 110.349 132.581 110.349 134.479C110.349 136.376 108.802 137.923 106.905 137.923C105.007 137.923 103.461 136.376 103.461 134.479C103.461 132.581 105.007 131.035 106.905 131.035Z" fill="#333333"/>
<path d="M120.697 131.035C122.603 131.035 124.141 132.581 124.141 134.479C124.141 136.376 122.595 137.923 120.697 137.923C118.8 137.923 117.253 136.376 117.253 134.479C117.253 132.581 118.8 131.035 120.697 131.035Z" fill="#333333"/>
<path d="M127.585 131.035C129.491 131.035 131.029 132.581 131.029 134.479C131.029 136.376 129.483 137.923 127.585 137.923C125.688 137.923 124.141 136.376 124.141 134.479C124.141 132.581 125.688 131.035 127.585 131.035Z" fill="#333333"/>
<path d="M141.378 131.035C143.284 131.035 144.822 132.581 144.822 134.479C144.822 136.376 143.275 137.923 141.378 137.923C139.48 137.923 137.934 136.376 137.934 134.479C137.934 132.581 139.48 131.035 141.378 131.035Z" fill="#333333"/>
<path d="M148.274 131.035C150.18 131.035 151.726 132.581 151.726 134.479C151.726 136.376 150.18 137.923 148.274 137.923C146.368 137.923 144.83 136.376 144.83 134.479C144.83 132.581 146.376 131.035 148.274 131.035Z" fill="#333333"/>
<path d="M155.17 131.035C157.076 131.035 158.614 132.581 158.614 134.479C158.614 136.376 157.068 137.923 155.17 137.923C153.273 137.923 151.726 136.376 151.726 134.479C151.726 132.581 153.273 131.035 155.17 131.035Z" fill="#333333"/>
<path d="M162.067 131.035C163.972 131.035 165.511 132.581 165.511 134.479C165.511 136.376 163.964 137.923 162.067 137.923C160.169 137.923 158.622 136.376 158.622 134.479C158.622 132.581 160.169 131.035 162.067 131.035Z" fill="#333333"/>
<path d="M189.652 131.035C191.558 131.035 193.104 132.581 193.104 134.479C193.104 136.376 191.558 137.923 189.652 137.923C187.746 137.923 186.207 136.376 186.207 134.479C186.207 132.581 187.754 131.035 189.652 131.035Z" fill="#333333"/>
<path d="M196.548 131.035C198.454 131.035 199.992 132.581 199.992 134.479C199.992 136.376 198.445 137.923 196.548 137.923C194.65 137.923 193.104 136.376 193.104 134.479C193.104 132.581 194.65 131.035 196.548 131.035Z" fill="#333333"/>
<path d="M3.45249 137.931C5.35845 137.931 6.89658 139.478 6.89658 141.375C6.89658 143.273 5.35009 144.819 3.45249 144.819C1.55489 144.819 0.00839233 143.273 0.00839233 141.375C0.00839233 139.478 1.55489 137.931 3.45249 137.931Z" fill="#333333"/>
<path d="M37.9338 137.931C39.8397 137.931 41.3779 139.478 41.3779 141.375C41.3779 143.273 39.8314 144.819 37.9338 144.819C36.0362 144.819 34.4897 143.273 34.4897 141.375C34.4897 139.478 36.0362 137.931 37.9338 137.931Z" fill="#333333"/>
<path d="M44.83 137.931C46.736 137.931 48.2741 139.478 48.2741 141.375C48.2741 143.273 46.7276 144.819 44.83 144.819C42.9324 144.819 41.3859 143.273 41.3859 141.375C41.3859 139.478 42.9324 137.931 44.83 137.931Z" fill="#333333"/>
<path d="M51.7264 137.931C53.6323 137.931 55.1704 139.478 55.1704 141.375C55.1704 143.273 53.624 144.819 51.7264 144.819C49.8288 144.819 48.2823 143.273 48.2823 141.375C48.2823 139.478 49.8288 137.931 51.7264 137.931Z" fill="#333333"/>
<path d="M58.6226 137.931C60.5285 137.931 62.0667 139.478 62.0667 141.375C62.0667 143.273 60.5202 144.819 58.6226 144.819C56.725 144.819 55.1785 143.273 55.1785 141.375C55.1785 139.478 56.725 137.931 58.6226 137.931Z" fill="#333333"/>
<path d="M65.5189 137.931C67.4248 137.931 68.9629 139.478 68.9629 141.375C68.9629 143.273 67.4164 144.819 65.5189 144.819C63.6213 144.819 62.0748 143.273 62.0748 141.375C62.0748 139.478 63.6213 137.931 65.5189 137.931Z" fill="#333333"/>
<path d="M79.3114 137.931C81.2173 137.931 82.7638 139.478 82.7638 141.375C82.7638 143.273 81.2173 144.819 79.3114 144.819C77.4054 144.819 75.8673 143.273 75.8673 141.375C75.8673 139.478 77.4138 137.931 79.3114 137.931Z" fill="#333333"/>
<path d="M141.378 137.931C143.284 137.931 144.822 139.478 144.822 141.375C144.822 143.273 143.275 144.819 141.378 144.819C139.48 144.819 137.934 143.273 137.934 141.375C137.934 139.478 139.48 137.931 141.378 137.931Z" fill="#333333"/>
<path d="M148.274 137.931C150.18 137.931 151.726 139.478 151.726 141.375C151.726 143.273 150.18 144.819 148.274 144.819C146.368 144.819 144.83 143.273 144.83 141.375C144.83 139.478 146.376 137.931 148.274 137.931Z" fill="#333333"/>
<path d="M155.17 137.931C157.076 137.931 158.614 139.478 158.614 141.375C158.614 143.273 157.068 144.819 155.17 144.819C153.273 144.819 151.726 143.273 151.726 141.375C151.726 139.478 153.273 137.931 155.17 137.931Z" fill="#333333"/>
<path d="M162.067 137.931C163.972 137.931 165.511 139.478 165.511 141.375C165.511 143.273 163.964 144.819 162.067 144.819C160.169 144.819 158.622 143.273 158.622 141.375C158.622 139.478 160.169 137.931 162.067 137.931Z" fill="#333333"/>
<path d="M168.963 137.931C170.869 137.931 172.407 139.478 172.407 141.375C172.407 143.273 170.86 144.819 168.963 144.819C167.065 144.819 165.519 143.273 165.519 141.375C165.519 139.478 167.065 137.931 168.963 137.931Z" fill="#333333"/>
<path d="M182.755 137.931C184.661 137.931 186.199 139.478 186.199 141.375C186.199 143.273 184.653 144.819 182.755 144.819C180.858 144.819 179.311 143.273 179.311 141.375C179.311 139.478 180.858 137.931 182.755 137.931Z" fill="#333333"/>
<path d="M58.6226 144.828C60.5285 144.828 62.0667 146.374 62.0667 148.272C62.0667 150.169 60.5202 151.716 58.6226 151.716C56.725 151.716 55.1785 150.169 55.1785 148.272C55.1785 146.374 56.725 144.828 58.6226 144.828Z" fill="#333333"/>
<path d="M72.4151 144.828C74.321 144.828 75.8592 146.374 75.8592 148.272C75.8592 150.169 74.3127 151.716 72.4151 151.716C70.5175 151.716 68.971 150.169 68.971 148.272C68.971 146.374 70.5175 144.828 72.4151 144.828Z" fill="#333333"/>
<path d="M79.3114 144.828C81.2173 144.828 82.7638 146.374 82.7638 148.272C82.7638 150.169 81.2173 151.716 79.3114 151.716C77.4054 151.716 75.8673 150.169 75.8673 148.272C75.8673 146.374 77.4138 144.828 79.3114 144.828Z" fill="#333333"/>
<path d="M86.2076 144.828C88.1136 144.828 89.6517 146.374 89.6517 148.272C89.6517 150.169 88.1052 151.716 86.2076 151.716C84.3101 151.716 82.7635 150.169 82.7635 148.272C82.7635 146.374 84.3101 144.828 86.2076 144.828Z" fill="#333333"/>
<path d="M100 144.828C101.906 144.828 103.444 146.374 103.444 148.272C103.444 150.169 101.898 151.716 100 151.716C98.1026 151.716 96.5561 150.169 96.5561 148.272C96.5561 146.374 98.1026 144.828 100 144.828Z" fill="#333333"/>
<path d="M134.49 144.828C136.396 144.828 137.934 146.374 137.934 148.272C137.934 150.169 136.387 151.716 134.49 151.716C132.592 151.716 131.046 150.169 131.046 148.272C131.046 146.374 132.592 144.828 134.49 144.828Z" fill="#333333"/>
<path d="M141.378 144.828C143.284 144.828 144.822 146.374 144.822 148.272C144.822 150.169 143.275 151.716 141.378 151.716C139.48 151.716 137.934 150.169 137.934 148.272C137.934 146.374 139.48 144.828 141.378 144.828Z" fill="#333333"/>
<path d="M168.963 144.828C170.869 144.828 172.407 146.374 172.407 148.272C172.407 150.169 170.86 151.716 168.963 151.716C167.065 151.716 165.519 150.169 165.519 148.272C165.519 146.374 167.065 144.828 168.963 144.828Z" fill="#333333"/>
<path d="M182.755 144.828C184.661 144.828 186.199 146.374 186.199 148.272C186.199 150.169 184.653 151.716 182.755 151.716C180.858 151.716 179.311 150.169 179.311 148.272C179.311 146.374 180.858 144.828 182.755 144.828Z" fill="#333333"/>
<path d="M189.652 144.828C191.558 144.828 193.104 146.374 193.104 148.272C193.104 150.169 191.558 151.716 189.652 151.716C187.746 151.716 186.207 150.169 186.207 148.272C186.207 146.374 187.754 144.828 189.652 144.828Z" fill="#333333"/>
<path d="M196.548 144.828C198.454 144.828 199.992 146.374 199.992 148.272C199.992 150.169 198.445 151.716 196.548 151.716C194.65 151.716 193.104 150.169 193.104 148.272C193.104 146.374 194.65 144.828 196.548 144.828Z" fill="#333333"/>
<path d="M65.5189 151.724C67.4248 151.724 68.9629 153.271 68.9629 155.168C68.9629 157.066 67.4164 158.612 65.5189 158.612C63.6213 158.612 62.0748 157.066 62.0748 155.168C62.0748 153.271 63.6213 151.724 65.5189 151.724Z" fill="#333333"/>
<path d="M127.585 151.724C129.491 151.724 131.029 153.271 131.029 155.168C131.029 157.066 129.483 158.612 127.585 158.612C125.688 158.612 124.141 157.066 124.141 155.168C124.141 153.271 125.688 151.724 127.585 151.724Z" fill="#333333"/>
<path d="M141.378 151.724C143.284 151.724 144.822 153.271 144.822 155.168C144.822 157.066 143.275 158.612 141.378 158.612C139.48 158.612 137.934 157.066 137.934 155.168C137.934 153.271 139.48 151.724 141.378 151.724Z" fill="#333333"/>
<path d="M155.17 151.724C157.076 151.724 158.614 153.271 158.614 155.168C158.614 157.066 157.068 158.612 155.17 158.612C153.273 158.612 151.726 157.066 151.726 155.168C151.726 153.271 153.273 151.724 155.17 151.724Z" fill="#333333"/>
<path d="M168.963 151.724C170.869 151.724 172.407 153.271 172.407 155.168C172.407 157.066 170.86 158.612 168.963 158.612C167.065 158.612 165.519 157.066 165.519 155.168C165.519 153.271 167.065 151.724 168.963 151.724Z" fill="#333333"/>
<path d="M189.652 151.724C191.558 151.724 193.104 153.271 193.104 155.168C193.104 157.066 191.558 158.612 189.652 158.612C187.746 158.612 186.207 157.066 186.207 155.168C186.207 153.271 187.754 151.724 189.652 151.724Z" fill="#333333"/>
<path d="M58.6226 158.621C60.5285 158.621 62.0667 160.167 62.0667 162.065C62.0667 163.962 60.5202 165.509 58.6226 165.509C56.725 165.509 55.1785 163.962 55.1785 162.065C55.1785 160.167 56.725 158.621 58.6226 158.621Z" fill="#333333"/>
<path d="M100 158.621C101.906 158.621 103.444 160.167 103.444 162.065C103.444 163.962 101.898 165.509 100 165.509C98.1026 165.509 96.5561 163.962 96.5561 162.065C96.5561 160.167 98.1026 158.621 100 158.621Z" fill="#333333"/>
<path d="M113.793 158.621C115.699 158.621 117.237 160.167 117.237 162.065C117.237 163.962 115.69 165.509 113.793 165.509C111.895 165.509 110.349 163.962 110.349 162.065C110.349 160.167 111.895 158.621 113.793 158.621Z" fill="#333333"/>
<path d="M127.585 158.621C129.491 158.621 131.029 160.167 131.029 162.065C131.029 163.962 129.483 165.509 127.585 165.509C125.688 165.509 124.141 163.962 124.141 162.065C124.141 160.167 125.688 158.621 127.585 158.621Z" fill="#333333"/>
<path d="M141.378 158.621C143.284 158.621 144.822 160.167 144.822 162.065C144.822 163.962 143.275 165.509 141.378 165.509C139.48 165.509 137.934 163.962 137.934 162.065C137.934 160.167 139.48 158.621 141.378 158.621Z" fill="#333333"/>
<path d="M168.963 158.621C170.869 158.621 172.407 160.167 172.407 162.065C172.407 163.962 170.86 165.509 168.963 165.509C167.065 165.509 165.519 163.962 165.519 162.065C165.519 160.167 167.065 158.621 168.963 158.621Z" fill="#333333"/>
<path d="M175.859 158.621C177.765 158.621 179.303 160.167 179.303 162.065C179.303 163.962 177.757 165.509 175.859 165.509C173.961 165.509 172.415 163.962 172.415 162.065C172.415 160.167 173.961 158.621 175.859 158.621Z" fill="#333333"/>
<path d="M182.755 158.621C184.661 158.621 186.199 160.167 186.199 162.065C186.199 163.962 184.653 165.509 182.755 165.509C180.858 165.509 179.311 163.962 179.311 162.065C179.311 160.167 180.858 158.621 182.755 158.621Z" fill="#333333"/>
<path d="M196.548 158.621C198.454 158.621 199.992 160.167 199.992 162.065C199.992 163.962 198.445 165.509 196.548 165.509C194.65 165.509 193.104 163.962 193.104 162.065C193.104 160.167 194.65 158.621 196.548 158.621Z" fill="#333333"/>
<path d="M79.3114 165.517C81.2173 165.517 82.7638 167.064 82.7638 168.961C82.7638 170.859 81.2173 172.405 79.3114 172.405C77.4054 172.405 75.8673 170.859 75.8673 168.961C75.8673 167.064 77.4138 165.517 79.3114 165.517Z" fill="#333333"/>
<path d="M86.2076 165.517C88.1136 165.517 89.6517 167.064 89.6517 168.961C89.6517 170.859 88.1052 172.405 86.2076 172.405C84.3101 172.405 82.7635 170.859 82.7635 168.961C82.7635 167.064 84.3101 165.517 86.2076 165.517Z" fill="#333333"/>
<path d="M120.697 165.517C122.603 165.517 124.141 167.064 124.141 168.961C124.141 170.859 122.595 172.405 120.697 172.405C118.8 172.405 117.253 170.859 117.253 168.961C117.253 167.064 118.8 165.517 120.697 165.517Z" fill="#333333"/>
<path d="M141.378 165.517C143.284 165.517 144.822 167.064 144.822 168.961C144.822 170.859 143.275 172.405 141.378 172.405C139.48 172.405 137.934 170.859 137.934 168.961C137.934 167.064 139.48 165.517 141.378 165.517Z" fill="#333333"/>
<path d="M148.274 165.517C150.18 165.517 151.726 167.064 151.726 168.961C151.726 170.859 150.18 172.405 148.274 172.405C146.368 172.405 144.83 170.859 144.83 168.961C144.83 167.064 146.376 165.517 148.274 165.517Z" fill="#333333"/>
<path d="M155.17 165.517C157.076 165.517 158.614 167.064 158.614 168.961C158.614 170.859 157.068 172.405 155.17 172.405C153.273 172.405 151.726 170.859 151.726 168.961C151.726 167.064 153.273 165.517 155.17 165.517Z" fill="#333333"/>
<path d="M162.067 165.517C163.972 165.517 165.511 167.064 165.511 168.961C165.511 170.859 163.964 172.405 162.067 172.405C160.169 172.405 158.622 170.859 158.622 168.961C158.622 167.064 160.169 165.517 162.067 165.517Z" fill="#333333"/>
<path d="M168.963 165.517C170.869 165.517 172.407 167.064 172.407 168.961C172.407 170.859 170.86 172.405 168.963 172.405C167.065 172.405 165.519 170.859 165.519 168.961C165.519 167.064 167.065 165.517 168.963 165.517Z" fill="#333333"/>
<path d="M189.652 165.517C191.558 165.517 193.104 167.064 193.104 168.961C193.104 170.859 191.558 172.405 189.652 172.405C187.746 172.405 186.207 170.859 186.207 168.961C186.207 167.064 187.754 165.517 189.652 165.517Z" fill="#333333"/>
<path d="M196.548 165.517C198.454 165.517 199.992 167.064 199.992 168.961C199.992 170.859 198.445 172.405 196.548 172.405C194.65 172.405 193.104 170.859 193.104 168.961C193.104 167.064 194.65 165.517 196.548 165.517Z" fill="#333333"/>
<path d="M58.6226 172.414C60.5285 172.414 62.0667 173.96 62.0667 175.858C62.0667 177.756 60.5202 179.302 58.6226 179.302C56.725 179.302 55.1785 177.756 55.1785 175.858C55.1785 173.96 56.725 172.414 58.6226 172.414Z" fill="#333333"/>
<path d="M65.5189 172.414C67.4248 172.414 68.9629 173.96 68.9629 175.858C68.9629 177.756 67.4164 179.302 65.5189 179.302C63.6213 179.302 62.0748 177.756 62.0748 175.858C62.0748 173.96 63.6213 172.414 65.5189 172.414Z" fill="#333333"/>
<path d="M79.3114 172.414C81.2173 172.414 82.7638 173.96 82.7638 175.858C82.7638 177.756 81.2173 179.302 79.3114 179.302C77.4054 179.302 75.8673 177.756 75.8673 175.858C75.8673 173.96 77.4138 172.414 79.3114 172.414Z" fill="#333333"/>
<path d="M93.1123 172.414C95.0182 172.414 96.5564 173.96 96.5564 175.858C96.5564 177.756 95.0098 179.302 93.1123 179.302C91.2147 179.302 89.6682 177.756 89.6682 175.858C89.6682 173.96 91.2147 172.414 93.1123 172.414Z" fill="#333333"/>
<path d="M113.793 172.414C115.699 172.414 117.237 173.96 117.237 175.858C117.237 177.756 115.69 179.302 113.793 179.302C111.895 179.302 110.349 177.756 110.349 175.858C110.349 173.96 111.895 172.414 113.793 172.414Z" fill="#333333"/>
<path d="M120.697 172.414C122.603 172.414 124.141 173.96 124.141 175.858C124.141 177.756 122.595 179.302 120.697 179.302C118.8 179.302 117.253 177.756 117.253 175.858C117.253 173.96 118.8 172.414 120.697 172.414Z" fill="#333333"/>
<path d="M155.17 172.414C157.076 172.414 158.614 173.96 158.614 175.858C158.614 177.756 157.068 179.302 155.17 179.302C153.273 179.302 151.726 177.756 151.726 175.858C151.726 173.96 153.273 172.414 155.17 172.414Z" fill="#333333"/>
<path d="M168.963 172.414C170.869 172.414 172.407 173.96 172.407 175.858C172.407 177.756 170.86 179.302 168.963 179.302C167.065 179.302 165.519 177.756 165.519 175.858C165.519 173.96 167.065 172.414 168.963 172.414Z" fill="#333333"/>
<path d="M175.859 172.414C177.765 172.414 179.303 173.96 179.303 175.858C179.303 177.756 177.757 179.302 175.859 179.302C173.961 179.302 172.415 177.756 172.415 175.858C172.415 173.96 173.961 172.414 175.859 172.414Z" fill="#333333"/>
<path d="M182.755 172.414C184.661 172.414 186.199 173.96 186.199 175.858C186.199 177.756 184.653 179.302 182.755 179.302C180.858 179.302 179.311 177.756 179.311 175.858C179.311 173.96 180.858 172.414 182.755 172.414Z" fill="#333333"/>
<path d="M189.652 172.414C191.558 172.414 193.104 173.96 193.104 175.858C193.104 177.756 191.558 179.302 189.652 179.302C187.746 179.302 186.207 177.756 186.207 175.858C186.207 173.96 187.754 172.414 189.652 172.414Z" fill="#333333"/>
<path d="M79.3114 179.31C81.2173 179.31 82.7638 180.857 82.7638 182.754C82.7638 184.652 81.2173 186.199 79.3114 186.199C77.4054 186.199 75.8673 184.652 75.8673 182.754C75.8673 180.857 77.4138 179.31 79.3114 179.31Z" fill="#333333"/>
<path d="M100 179.31C101.906 179.31 103.444 180.857 103.444 182.754C103.444 184.652 101.898 186.199 100 186.199C98.1026 186.199 96.5561 184.652 96.5561 182.754C96.5561 180.857 98.1026 179.31 100 179.31Z" fill="#333333"/>
<path d="M120.697 179.31C122.603 179.31 124.141 180.857 124.141 182.754C124.141 184.652 122.595 186.199 120.697 186.199C118.8 186.199 117.253 184.652 117.253 182.754C117.253 180.857 118.8 179.31 120.697 179.31Z" fill="#333333"/>
<path d="M134.49 179.31C136.396 179.31 137.934 180.857 137.934 182.754C137.934 184.652 136.387 186.199 134.49 186.199C132.592 186.199 131.046 184.652 131.046 182.754C131.046 180.857 132.592 179.31 134.49 179.31Z" fill="#333333"/>
<path d="M141.378 179.31C143.284 179.31 144.822 180.857 144.822 182.754C144.822 184.652 143.275 186.199 141.378 186.199C139.48 186.199 137.934 184.652 137.934 182.754C137.934 180.857 139.48 179.31 141.378 179.31Z" fill="#333333"/>
<path d="M148.274 179.31C150.18 179.31 151.726 180.857 151.726 182.754C151.726 184.652 150.18 186.199 148.274 186.199C146.368 186.199 144.83 184.652 144.83 182.754C144.83 180.857 146.376 179.31 148.274 179.31Z" fill="#333333"/>
<path d="M168.963 179.31C170.869 179.31 172.407 180.857 172.407 182.754C172.407 184.652 170.86 186.199 168.963 186.199C167.065 186.199 165.519 184.652 165.519 182.754C165.519 180.857 167.065 179.31 168.963 179.31Z" fill="#333333"/>
<path d="M175.859 179.31C177.765 179.31 179.303 180.857 179.303 182.754C179.303 184.652 177.757 186.199 175.859 186.199C173.961 186.199 172.415 184.652 172.415 182.754C172.415 180.857 173.961 179.31 175.859 179.31Z" fill="#333333"/>
<path d="M182.755 179.31C184.661 179.31 186.199 180.857 186.199 182.754C186.199 184.652 184.653 186.199 182.755 186.199C180.858 186.199 179.311 184.652 179.311 182.754C179.311 180.857 180.858 179.31 182.755 179.31Z" fill="#333333"/>
<path d="M196.548 179.31C198.454 179.31 199.992 180.857 199.992 182.754C199.992 184.652 198.445 186.199 196.548 186.199C194.65 186.199 193.104 184.652 193.104 182.754C193.104 180.857 194.65 179.31 196.548 179.31Z" fill="#333333"/>
<path d="M65.5189 186.207C67.4248 186.207 68.9629 187.753 68.9629 189.651C68.9629 191.549 67.4164 193.095 65.5189 193.095C63.6213 193.095 62.0748 191.549 62.0748 189.651C62.0748 187.753 63.6213 186.207 65.5189 186.207Z" fill="#333333"/>
<path d="M86.2076 186.207C88.1136 186.207 89.6517 187.753 89.6517 189.651C89.6517 191.549 88.1052 193.095 86.2076 193.095C84.3101 193.095 82.7635 191.549 82.7635 189.651C82.7635 187.753 84.3101 186.207 86.2076 186.207Z" fill="#333333"/>
<path d="M93.1123 186.207C95.0182 186.207 96.5564 187.753 96.5564 189.651C96.5564 191.549 95.0098 193.095 93.1123 193.095C91.2147 193.095 89.6682 191.549 89.6682 189.651C89.6682 187.753 91.2147 186.207 93.1123 186.207Z" fill="#333333"/>
<path d="M106.905 186.207C108.811 186.207 110.349 187.753 110.349 189.651C110.349 191.549 108.802 193.095 106.905 193.095C105.007 193.095 103.461 191.549 103.461 189.651C103.461 187.753 105.007 186.207 106.905 186.207Z" fill="#333333"/>
<path d="M120.697 186.207C122.603 186.207 124.141 187.753 124.141 189.651C124.141 191.549 122.595 193.095 120.697 193.095C118.8 193.095 117.253 191.549 117.253 189.651C117.253 187.753 118.8 186.207 120.697 186.207Z" fill="#333333"/>
<path d="M134.49 186.207C136.396 186.207 137.934 187.753 137.934 189.651C137.934 191.549 136.387 193.095 134.49 193.095C132.592 193.095 131.046 191.549 131.046 189.651C131.046 187.753 132.592 186.207 134.49 186.207Z" fill="#333333"/>
<path d="M141.378 186.207C143.284 186.207 144.822 187.753 144.822 189.651C144.822 191.549 143.275 193.095 141.378 193.095C139.48 193.095 137.934 191.549 137.934 189.651C137.934 187.753 139.48 186.207 141.378 186.207Z" fill="#333333"/>
<path d="M148.274 186.207C150.18 186.207 151.726 187.753 151.726 189.651C151.726 191.549 150.18 193.095 148.274 193.095C146.368 193.095 144.83 191.549 144.83 189.651C144.83 187.753 146.376 186.207 148.274 186.207Z" fill="#333333"/>
<path d="M189.652 186.207C191.558 186.207 193.104 187.753 193.104 189.651C193.104 191.549 191.558 193.095 189.652 193.095C187.746 193.095 186.207 191.549 186.207 189.651C186.207 187.753 187.754 186.207 189.652 186.207Z" fill="#333333"/>
<path d="M58.6226 193.103C60.5285 193.103 62.0667 194.65 62.0667 196.548C62.0667 198.445 60.5202 199.992 58.6226 199.992C56.725 199.992 55.1785 198.445 55.1785 196.548C55.1785 194.65 56.725 193.103 58.6226 193.103Z" fill="#333333"/>
<path d="M65.5189 193.103C67.4248 193.103 68.9629 194.65 68.9629 196.548C68.9629 198.445 67.4164 199.992 65.5189 199.992C63.6213 199.992 62.0748 198.445 62.0748 196.548C62.0748 194.65 63.6213 193.103 65.5189 193.103Z" fill="#333333"/>
<path d="M79.3114 193.103C81.2173 193.103 82.7638 194.65 82.7638 196.548C82.7638 198.445 81.2173 199.992 79.3114 199.992C77.4054 199.992 75.8673 198.445 75.8673 196.548C75.8673 194.65 77.4138 193.103 79.3114 193.103Z" fill="#333333"/>
<path d="M86.2076 193.103C88.1136 193.103 89.6517 194.65 89.6517 196.548C89.6517 198.445 88.1052 199.992 86.2076 199.992C84.3101 199.992 82.7635 198.445 82.7635 196.548C82.7635 194.65 84.3101 193.103 86.2076 193.103Z" fill="#333333"/>
<path d="M100 193.103C101.906 193.103 103.444 194.65 103.444 196.548C103.444 198.445 101.898 199.992 100 199.992C98.1026 199.992 96.5561 198.445 96.5561 196.548C96.5561 194.65 98.1026 193.103 100 193.103Z" fill="#333333"/>
<path d="M113.793 193.103C115.699 193.103 117.237 194.65 117.237 196.548C117.237 198.445 115.69 199.992 113.793 199.992C111.895 199.992 110.349 198.445 110.349 196.548C110.349 194.65 111.895 193.103 113.793 193.103Z" fill="#333333"/>
<path d="M120.697 193.103C122.603 193.103 124.141 194.65 124.141 196.548C124.141 198.445 122.595 199.992 120.697 199.992C118.8 199.992 117.253 198.445 117.253 196.548C117.253 194.65 118.8 193.103 120.697 193.103Z" fill="#333333"/>
<path d="M127.585 193.103C129.491 193.103 131.029 194.65 131.029 196.548C131.029 198.445 129.483 199.992 127.585 199.992C125.688 199.992 124.141 198.445 124.141 196.548C124.141 194.65 125.688 193.103 127.585 193.103Z" fill="#333333"/>
<path d="M141.378 193.103C143.284 193.103 144.822 194.65 144.822 196.548C144.822 198.445 143.275 199.992 141.378 199.992C139.48 199.992 137.934 198.445 137.934 196.548C137.934 194.65 139.48 193.103 141.378 193.103Z" fill="#333333"/>
<path d="M168.963 193.103C170.869 193.103 172.407 194.65 172.407 196.548C172.407 198.445 170.86 199.992 168.963 199.992C167.065 199.992 165.519 198.445 165.519 196.548C165.519 194.65 167.065 193.103 168.963 193.103Z" fill="#333333"/>
<path d="M175.859 193.103C177.765 193.103 179.303 194.65 179.303 196.548C179.303 198.445 177.757 199.992 175.859 199.992C173.961 199.992 172.415 198.445 172.415 196.548C172.415 194.65 173.961 193.103 175.859 193.103Z" fill="#333333"/>
<path d="M189.652 193.103C191.558 193.103 193.104 194.65 193.104 196.548C193.104 198.445 191.558 199.992 189.652 199.992C187.746 199.992 186.207 198.445 186.207 196.548C186.207 194.65 187.754 193.103 189.652 193.103Z" fill="#333333"/>
<path d="M31.798 0H16.4842C9.01948 0 2.69999 4.93208 0.677087 11.6698C0.46811 12.3636 0.300927 13.0825 0.192259 13.8182C0.0668725 14.629 0 15.4566 0 16.2926V31.9666C0 40.953 7.39781 48.2675 16.4758 48.2675H24.1327H31.7897C40.876 48.2675 48.2738 40.9613 48.2738 31.9666V16.2926C48.2738 7.30617 40.876 0 31.7897 0H31.798ZM41.0349 31.9666C41.0349 36.9655 36.8887 41.0282 31.7897 41.0282H16.4842C11.3851 41.0282 7.23899 36.9655 7.23899 31.9666V16.2926C7.23899 14.7294 7.64022 13.2665 8.35911 11.9791C9.04455 10.7419 10.0142 9.68025 11.1845 8.87774C12.6891 7.84953 14.5114 7.23929 16.4842 7.23929H31.798C36.8887 7.23929 41.0349 11.302 41.0349 16.2926V31.9666Z" fill="#333333"/>
<path d="M183.516 0H168.202C160.737 0 154.418 4.93208 152.395 11.6698C152.186 12.3636 152.019 13.0825 151.91 13.8182C151.785 14.629 151.718 15.4566 151.718 16.2926V31.9666C151.718 40.953 159.116 48.2675 168.202 48.2675H175.859H183.516C192.602 48.2675 200 40.9613 200 31.9666V16.2926C200 7.30617 192.602 0 183.516 0ZM192.753 31.9666C192.753 36.9655 188.607 41.0282 183.516 41.0282H168.21C163.111 41.0282 158.974 36.9655 158.974 31.9666V16.2926C158.974 14.7294 159.375 13.2665 160.094 11.9791C160.779 10.7419 161.749 9.68025 162.919 8.87774C164.424 7.84953 166.246 7.23929 168.219 7.23929H183.533C188.623 7.23929 192.769 11.302 192.769 16.2926V31.9666H192.753Z" fill="#333333"/>
<path d="M31.798 151.724H16.4842C9.01948 151.724 2.69999 156.656 0.677087 163.394C0.46811 164.088 0.300927 164.807 0.192259 165.542C0.0668725 166.345 0 167.181 0 168.025V183.699C0 192.685 7.39781 200 16.4758 200H24.1327H31.7897C40.876 200 48.2738 192.694 48.2738 183.699V168.025C48.2738 159.039 40.876 151.732 31.7897 151.732L31.798 151.724ZM41.0349 183.691C41.0349 188.69 36.8887 192.752 31.7897 192.752H16.4842C11.3851 192.752 7.23899 188.69 7.23899 183.691V168.017C7.23899 166.453 7.64022 164.982 8.35911 163.703C9.04455 162.466 10.0142 161.404 11.1845 160.602C12.6891 159.574 14.5114 158.963 16.4842 158.963H31.798C36.8887 158.963 41.0349 163.018 41.0349 168.017V183.691Z" fill="#333333"/>
<path d="M19.4602 34.4827C16.3422 34.4827 13.8009 31.9916 13.8009 28.932V19.3354C13.8009 18.374 14.0517 17.4796 14.4864 16.6938C14.9043 15.9331 15.4979 15.2894 16.2168 14.7962C17.1363 14.1609 18.2565 13.7931 19.4602 13.7931H28.8396C31.9576 13.7931 34.4989 16.2758 34.4989 19.3354V28.932C34.4989 31.9916 31.9576 34.4827 28.8396 34.4827H19.4686H19.4602Z" fill="#333333"/>
<path d="M171.178 34.4827C168.052 34.4827 165.519 31.9916 165.519 28.932V19.3354C165.519 18.374 165.769 17.4796 166.204 16.6938C166.622 15.9331 167.216 15.2894 167.935 14.7962C168.854 14.1609 169.974 13.7931 171.178 13.7931H180.557C183.675 13.7931 186.217 16.2758 186.217 19.3354V28.932C186.217 31.9916 183.675 34.4827 180.557 34.4827H171.186H171.178Z" fill="#333333"/>
<path d="M19.4602 186.207C16.3422 186.207 13.8009 183.716 13.8009 180.656V171.06C13.8009 170.107 14.0517 169.204 14.4864 168.418C14.9043 167.657 15.4979 167.014 16.2168 166.52C17.1363 165.885 18.2565 165.517 19.4602 165.517H28.8396C31.9576 165.517 34.4989 168 34.4989 171.06V180.656C34.4989 183.716 31.9576 186.207 28.8396 186.207H19.4686H19.4602Z" fill="#333333"/>
</svg>
