<svg width="200" height="60" viewBox="0 0 200 60" fill="none" xmlns="http://www.w3.org/2000/svg">
<path d="M7.73155 0H192.27C196.537 0 200 3.41779 200 7.62581V52.3742C200 56.5835 196.535 60 192.27 60H7.73022C3.46458 60 0 56.5835 0 52.3742V7.62712C0 3.41779 3.46458 0 7.73155 0Z" fill="black"/>
<path d="M65.0004 11.5648H68.7612C69.7482 11.5648 70.6237 11.7653 71.3889 12.1676C72.154 12.5699 72.7492 13.1256 73.1743 13.8359C73.5994 14.5462 73.8119 15.3521 73.8119 16.2538C73.8119 17.1554 73.5994 17.9613 73.1743 18.6716C72.7492 19.3819 72.154 19.9376 71.3889 20.3386C70.6237 20.7409 69.7482 20.9414 68.7612 20.9414H65.0004V11.5648ZM68.7067 20.3255C69.5848 20.3255 70.358 20.1538 71.0288 19.8091C71.6984 19.4658 72.2152 18.9848 72.5765 18.3689C72.9378 17.753 73.1198 17.0479 73.1198 16.2524C73.1198 15.457 72.9392 14.7519 72.5765 14.136C72.2138 13.52 71.6984 13.0404 71.0288 12.6957C70.3593 12.3524 69.5848 12.1807 68.7067 12.1807H65.6925V20.3242H68.7067V20.3255Z" fill="white"/>
<path d="M76.9564 20.5392C76.4184 20.2351 75.9946 19.8132 75.6864 19.2732C75.3782 18.7333 75.2241 18.1239 75.2241 17.4451C75.2241 16.7662 75.3782 16.1569 75.6864 15.6169C75.9946 15.077 76.4171 14.655 76.9564 14.351C77.4944 14.047 78.0989 13.8949 78.7697 13.8949C79.4406 13.8949 80.0437 14.047 80.5817 14.351C81.1198 14.655 81.5435 15.077 81.8517 15.6169C82.1599 16.1569 82.314 16.7662 82.314 17.4451C82.314 18.1239 82.1599 18.7333 81.8517 19.2732C81.5435 19.8132 81.1211 20.2351 80.5817 20.5392C80.0437 20.8432 79.4393 20.9952 78.7697 20.9952C78.1002 20.9952 77.4958 20.8432 76.9564 20.5392ZM80.2284 20.0163C80.6588 19.766 80.9975 19.4187 81.2473 18.9718C81.4957 18.5249 81.6206 18.0165 81.6206 17.4451C81.6206 16.8737 81.4957 16.3652 81.2473 15.9184C80.9975 15.4715 80.6588 15.1242 80.2284 14.8739C79.798 14.6236 79.3117 14.4991 78.7684 14.4991C78.2251 14.4991 77.7389 14.6236 77.3085 14.8739C76.878 15.1242 76.5393 15.4728 76.2895 15.9184C76.0398 16.3652 75.9162 16.8737 75.9162 17.4451C75.9162 18.0165 76.0411 18.5262 76.2895 18.9718C76.5379 19.4187 76.878 19.7673 77.3085 20.0163C77.7389 20.2666 78.2251 20.3911 78.7684 20.3911C79.3117 20.3911 79.798 20.2666 80.2284 20.0163Z" fill="white"/>
<path d="M94.3431 13.9486L91.6543 20.9402H91.0166L88.6268 14.8725L86.2236 20.9402H85.5992L82.9105 13.9486H83.5627L85.9247 20.1906L88.3411 13.9486H88.9257L91.3288 20.1775L93.7187 13.9486H94.3431Z" fill="white"/>
<path d="M101.485 14.6589C102 15.1674 102.259 15.9 102.259 16.8553V20.9402H101.58V16.9078C101.58 16.1215 101.379 15.5239 100.976 15.1124C100.573 14.7022 100.01 14.4964 99.2849 14.4964C98.452 14.4964 97.7957 14.7428 97.3162 15.2329C96.8366 15.7244 96.5961 16.3849 96.5961 17.2157V20.9389H95.9173V13.9473H96.5696V15.461C96.814 14.9695 97.178 14.5856 97.6629 14.309C98.1464 14.0325 98.7203 13.8936 99.3806 13.8936C100.268 13.8936 100.969 14.1479 101.485 14.6576V14.6589Z" fill="white"/>
<path d="M105.056 11.0026H105.735V20.9414H105.056V11.0026Z" fill="white"/>
<path d="M109.556 20.5392C109.018 20.2351 108.595 19.8132 108.286 19.2732C107.978 18.7333 107.824 18.1239 107.824 17.4451C107.824 16.7662 107.978 16.1569 108.286 15.6169C108.595 15.077 109.017 14.655 109.556 14.351C110.094 14.047 110.699 13.8949 111.37 13.8949C112.041 13.8949 112.644 14.047 113.182 14.351C113.72 14.655 114.144 15.077 114.452 15.6169C114.76 16.1569 114.913 16.7662 114.913 17.4451C114.913 18.1239 114.759 18.7333 114.452 19.2732C114.144 19.8132 113.721 20.2351 113.182 20.5392C112.644 20.8432 112.039 20.9952 111.37 20.9952C110.7 20.9952 110.096 20.8432 109.556 20.5392ZM112.828 20.0163C113.259 19.766 113.598 19.4187 113.847 18.9718C114.096 18.5249 114.221 18.0165 114.221 17.4451C114.221 16.8737 114.096 16.3652 113.847 15.9184C113.598 15.4715 113.259 15.1242 112.828 14.8739C112.398 14.6236 111.912 14.4991 111.368 14.4991C110.825 14.4991 110.339 14.6236 109.908 14.8739C109.478 15.1242 109.139 15.4728 108.89 15.9184C108.64 16.3652 108.516 16.8737 108.516 17.4451C108.516 18.0165 108.641 18.5262 108.89 18.9718C109.138 19.4187 109.478 19.7673 109.908 20.0163C110.339 20.2666 110.825 20.3911 111.368 20.3911C111.912 20.3911 112.398 20.2666 112.828 20.0163Z" fill="white"/>
<path d="M121.404 14.5579C121.874 14.9996 122.109 15.6496 122.109 16.5067V20.9401H121.457V19.6938C121.231 20.104 120.9 20.4237 120.466 20.6518C120.031 20.8798 119.51 20.9938 118.905 20.9938C118.117 20.9938 117.495 20.8103 117.038 20.4447C116.581 20.0791 116.353 19.5968 116.353 18.9979C116.353 18.399 116.563 17.9469 116.984 17.5852C117.405 17.2235 118.077 17.0426 119 17.0426H121.431V16.4804C121.431 15.8291 121.252 15.3338 120.895 14.993C120.537 14.6536 120.014 14.4846 119.326 14.4846C118.856 14.4846 118.405 14.5645 117.975 14.7257C117.544 14.8869 117.18 15.1005 116.882 15.3691L116.541 14.8869C116.895 14.575 117.32 14.3312 117.818 14.1569C118.316 13.9826 118.837 13.8961 119.379 13.8961C120.257 13.8961 120.932 14.1176 121.402 14.5593L121.404 14.5579ZM120.5 20.0437C120.912 19.7764 121.222 19.3871 121.43 18.8787V17.5655H119.014C118.316 17.5655 117.811 17.69 117.499 17.9403C117.187 18.1907 117.03 18.534 117.03 18.9717C117.03 19.4094 117.202 19.7868 117.546 20.0503C117.89 20.3137 118.373 20.446 118.999 20.446C119.588 20.446 120.087 20.3124 120.499 20.0437H120.5Z" fill="white"/>
<path d="M131.219 11.0026V20.9414H130.554V19.2941C130.274 19.8393 129.879 20.2587 129.373 20.5535C128.865 20.8484 128.292 20.9952 127.649 20.9952C127.006 20.9952 126.391 20.8432 125.856 20.5391C125.322 20.2351 124.904 19.8157 124.601 19.2797C124.298 18.7437 124.147 18.133 124.147 17.445C124.147 16.757 124.298 16.1437 124.601 15.6038C124.904 15.0638 125.322 14.6445 125.856 14.3444C126.391 14.0456 126.988 13.8962 127.649 13.8962C128.309 13.8962 128.851 14.043 129.353 14.3378C129.855 14.6327 130.251 15.0429 130.541 15.5697V11.0026H131.219ZM129.148 20.0175C129.579 19.7672 129.918 19.4199 130.167 18.9731C130.416 18.5262 130.541 18.0177 130.541 17.4463C130.541 16.8749 130.416 16.3665 130.167 15.9196C129.918 15.4727 129.579 15.1254 129.148 14.8751C128.718 14.6248 128.232 14.5003 127.688 14.5003C127.145 14.5003 126.659 14.6248 126.228 14.8751C125.798 15.1254 125.459 15.474 125.21 15.9196C124.96 16.3665 124.836 16.8749 124.836 17.4463C124.836 18.0177 124.961 18.5275 125.21 18.9731C125.458 19.4199 125.798 19.7685 126.228 20.0175C126.659 20.2678 127.145 20.3923 127.688 20.3923C128.232 20.3923 128.718 20.2678 129.148 20.0175Z" fill="white"/>
<path d="M138.531 20.5392C137.993 20.2351 137.569 19.8132 137.261 19.2732C136.953 18.7333 136.799 18.1239 136.799 17.4451C136.799 16.7662 136.953 16.1569 137.261 15.6169C137.569 15.077 137.992 14.655 138.531 14.351C139.069 14.047 139.674 13.8949 140.343 13.8949C141.013 13.8949 141.617 14.047 142.157 14.351C142.695 14.655 143.118 15.077 143.427 15.6169C143.735 16.1569 143.887 16.7662 143.887 17.4451C143.887 18.1239 143.733 18.7333 143.427 19.2732C143.118 19.8132 142.696 20.2351 142.157 20.5392C141.618 20.8432 141.014 20.9952 140.343 20.9952C139.672 20.9952 139.069 20.8432 138.531 20.5392ZM141.803 20.0163C142.234 19.766 142.572 19.4187 142.822 18.9718C143.07 18.5249 143.195 18.0165 143.195 17.4451C143.195 16.8737 143.07 16.3652 142.822 15.9184C142.572 15.4715 142.234 15.1242 141.803 14.8739C141.373 14.6236 140.887 14.4991 140.343 14.4991C139.8 14.4991 139.314 14.6236 138.883 14.8739C138.453 15.1242 138.114 15.4728 137.864 15.9184C137.615 16.3652 137.491 16.8737 137.491 17.4451C137.491 18.0165 137.616 18.5262 137.864 18.9718C138.113 19.4187 138.453 19.7673 138.883 20.0163C139.314 20.2666 139.8 20.3911 140.343 20.3911C140.887 20.3911 141.373 20.2666 141.803 20.0163Z" fill="white"/>
<path d="M151.559 14.6589C152.075 15.1674 152.334 15.9 152.334 16.8553V20.9402H151.655V16.9078C151.655 16.1215 151.453 15.5239 151.05 15.1124C150.648 14.7022 150.085 14.4964 149.359 14.4964C148.526 14.4964 147.87 14.7428 147.391 15.2329C146.911 15.7244 146.671 16.3849 146.671 17.2157V20.9389H145.992V13.9473H146.644V15.461C146.888 14.9695 147.252 14.5856 147.737 14.309C148.221 14.0325 148.795 13.8936 149.455 13.8936C150.342 13.8936 151.044 14.1479 151.559 14.6576V14.6589Z" fill="white"/>
<path d="M162.136 20.4984C161.964 20.6596 161.75 20.7815 161.491 20.8667C161.233 20.9519 160.963 20.9938 160.683 20.9938C160.067 20.9938 159.592 20.8261 159.258 20.4919C158.923 20.1564 158.755 19.6912 158.755 19.0923V14.5252H157.452V13.9486H158.755V12.4218H159.434V13.9486H161.689V14.5252H159.434V19.0254C159.434 19.4802 159.545 19.8275 159.766 20.0634C159.988 20.3006 160.316 20.4185 160.751 20.4185C161.185 20.4185 161.561 20.2888 161.851 20.0306L162.136 20.4997V20.4984Z" fill="white"/>
<path d="M169.59 14.6589C170.106 15.1674 170.365 15.9 170.365 16.8553V20.9402H169.686V16.9077C169.686 16.1214 169.484 15.5238 169.081 15.1123C168.679 14.7022 168.116 14.4964 167.39 14.4964C166.557 14.4964 165.901 14.7428 165.422 15.2329C164.942 15.7243 164.701 16.3848 164.701 17.2157V20.9388H164.023V11H164.701V15.4072C164.946 14.9249 165.307 14.5528 165.788 14.2894C166.268 14.0259 166.834 13.8936 167.486 13.8936C168.373 13.8936 169.075 14.1478 169.59 14.6576V14.6589Z" fill="white"/>
<path d="M179.163 17.605H173.067C173.085 18.1501 173.225 18.6337 173.488 19.0583C173.751 19.4829 174.106 19.8105 174.553 20.0425C175.001 20.2744 175.506 20.3911 176.068 20.3911C176.529 20.3911 176.956 20.3085 177.351 20.1434C177.744 19.9783 178.072 19.7345 178.335 19.4134L178.729 19.8551C178.42 20.222 178.034 20.5025 177.567 20.699C177.101 20.8956 176.596 20.9939 176.053 20.9939C175.346 20.9939 174.718 20.8419 174.165 20.5379C173.613 20.2338 173.181 19.8145 172.869 19.2785C172.557 18.7425 172.4 18.1318 172.4 17.4438C172.4 16.7557 172.547 16.1555 172.841 15.6156C173.134 15.0757 173.54 14.6537 174.056 14.3497C174.572 14.0456 175.151 13.8936 175.794 13.8936C176.437 13.8936 177.014 14.043 177.525 14.3418C178.036 14.6406 178.439 15.0586 178.734 15.5946C179.027 16.1306 179.175 16.7374 179.175 17.4162L179.162 17.6036L179.163 17.605ZM174.451 14.8123C174.052 15.0311 173.734 15.3391 173.493 15.7362C173.253 16.1333 173.115 16.5828 173.079 17.0821H178.509C178.483 16.5815 178.346 16.1359 178.102 15.7427C177.857 15.3496 177.536 15.0416 177.137 14.8188C176.739 14.596 176.291 14.4833 175.793 14.4833C175.295 14.4833 174.847 14.5934 174.448 14.811L174.451 14.8123Z" fill="white"/>
<path d="M75.0526 41.6684H66.9318L65.331 45.3771H62.2211L69.5302 29.3536H72.5006L79.8323 45.3771H76.6773L75.0526 41.6684ZM74.0549 39.333L70.9915 32.3284L67.952 39.333H74.0549Z" fill="white"/>
<path d="M91.7246 33.7947C92.6758 34.3137 93.4224 35.0463 93.9644 35.9925C94.5051 36.9386 94.7761 38.0303 94.7761 39.2661C94.7761 40.5019 94.5051 41.5975 93.9644 42.5502C93.4224 43.5043 92.6771 44.2408 91.7246 44.7597C90.7734 45.2787 89.6947 45.5382 88.4872 45.5382C86.816 45.5382 85.4942 44.9891 84.5191 43.8895V49.8183H81.6191V33.1539H84.381V34.7567C84.8605 34.1774 85.4517 33.7423 86.1558 33.4514C86.8598 33.1618 87.637 33.0163 88.4872 33.0163C89.6934 33.0163 90.7721 33.2758 91.7246 33.7947ZM90.796 42.0352C91.4842 41.3341 91.8282 40.4102 91.8282 39.2661C91.8282 38.122 91.4842 37.1981 90.796 36.4957C90.1079 35.7946 89.2298 35.4434 88.1631 35.4434C87.4669 35.4434 86.8399 35.6006 86.2833 35.9125C85.7267 36.2257 85.2856 36.6713 84.9602 37.2519C84.6347 37.8324 84.4726 38.5034 84.4726 39.2661C84.4726 40.0288 84.6347 40.7011 84.9602 41.2803C85.2856 41.8609 85.7254 42.3065 86.2833 42.6197C86.8399 42.9329 87.4669 43.0888 88.1631 43.0888C89.2298 43.0888 90.1079 42.7376 90.796 42.0365V42.0352Z" fill="white"/>
<path d="M107.642 33.7947C108.593 34.3137 109.34 35.0463 109.882 35.9925C110.422 36.9386 110.693 38.0303 110.693 39.2661C110.693 40.5019 110.422 41.5975 109.882 42.5502C109.34 43.5043 108.595 44.2408 107.642 44.7597C106.691 45.2787 105.612 45.5382 104.405 45.5382C102.733 45.5382 101.412 44.9891 100.437 43.8895V49.8183H97.5366V33.1539H100.298V34.7567C100.778 34.1774 101.369 33.7423 102.073 33.4514C102.777 33.1618 103.554 33.0163 104.405 33.0163C105.611 33.0163 106.69 33.2758 107.642 33.7947ZM106.713 42.0352C107.402 41.3341 107.746 40.4102 107.746 39.2661C107.746 38.122 107.402 37.1981 106.713 36.4957C106.025 35.7946 105.147 35.4434 104.08 35.4434C103.384 35.4434 102.757 35.6006 102.201 35.9125C101.644 36.2257 101.203 36.6713 100.878 37.2519C100.552 37.8324 100.39 38.5034 100.39 39.2661C100.39 40.0288 100.552 40.7011 100.878 41.2803C101.203 41.8609 101.643 42.3065 102.201 42.6197C102.757 42.9329 103.384 43.0888 104.08 43.0888C105.147 43.0888 106.025 42.7376 106.713 42.0365V42.0352Z" fill="white"/>
<path d="M121.54 45.0795C120.373 44.7283 119.448 44.2631 118.768 43.6839L119.812 41.3721C120.476 41.8911 121.293 42.3144 122.26 42.642C123.227 42.971 124.197 43.1348 125.172 43.1348C126.378 43.1348 127.279 42.9447 127.876 42.5621C128.471 42.1807 128.768 41.6775 128.768 41.0511C128.768 40.5937 128.602 40.215 128.269 39.9175C127.935 39.62 127.514 39.388 127.004 39.219C126.494 39.0512 125.798 38.8612 124.916 38.6463C123.678 38.3567 122.676 38.0671 121.911 37.7761C121.146 37.4865 120.488 37.0318 119.938 36.4145C119.389 35.796 119.114 34.9612 119.114 33.9075C119.114 33.0229 119.358 32.217 119.845 31.4923C120.333 30.7676 121.067 30.1909 122.049 29.7637C123.031 29.3365 124.234 29.1229 125.657 29.1229C126.647 29.1229 127.622 29.2448 128.581 29.4885C129.54 29.7323 130.368 30.0835 131.064 30.5408L130.113 32.8526C129.401 32.4411 128.658 32.1279 127.885 31.9143C127.112 31.7006 126.361 31.5945 125.634 31.5945C124.443 31.5945 123.558 31.7924 122.978 32.1895C122.397 32.5865 122.107 33.1134 122.107 33.7686C122.107 34.226 122.274 34.6008 122.607 34.8904C122.939 35.18 123.362 35.4094 123.872 35.5771C124.382 35.7449 125.078 35.9362 125.96 36.1498C127.166 36.425 128.156 36.7107 128.93 37.0082C129.704 37.3057 130.365 37.7604 130.914 38.3698C131.462 38.9805 131.737 39.8048 131.737 40.8414C131.737 41.726 131.494 42.528 131.007 43.2448C130.519 43.9617 129.781 44.5344 128.791 44.9616C127.801 45.3888 126.594 45.6024 125.171 45.6024C123.918 45.6024 122.708 45.4268 121.539 45.0756L121.54 45.0795Z" fill="white"/>
<path d="M141.901 44.7126C141.561 44.9878 141.147 45.1935 140.661 45.3311C140.173 45.4687 139.659 45.5369 139.117 45.5369C137.755 45.5369 136.704 45.1857 135.962 44.4845C135.219 43.7834 134.849 42.7599 134.849 41.4167V35.5338H132.807V33.2444H134.849V30.4517H137.749V33.2444H141.067V35.5338H137.749V41.3485C137.749 41.9435 137.895 42.3982 138.19 42.7101C138.483 43.0233 138.908 43.1793 139.466 43.1793C140.116 43.1793 140.658 43.0115 141.091 42.6761L141.903 44.7139L141.901 44.7126Z" fill="white"/>
<path d="M146.055 44.7361C145.05 44.2014 144.265 43.4584 143.7 42.5043C143.135 41.5503 142.852 40.4704 142.852 39.2648C142.852 38.0591 143.134 36.9832 143.7 36.037C144.265 35.0908 145.05 34.3504 146.055 33.817C147.061 33.2837 148.19 33.0163 149.443 33.0163C150.696 33.0163 151.849 33.2837 152.854 33.817C153.86 34.3517 154.645 35.0908 155.21 36.037C155.774 36.9832 156.056 38.0591 156.056 39.2648C156.056 40.4704 155.773 41.5503 155.21 42.5043C154.645 43.4584 153.86 44.2028 152.854 44.7361C151.849 45.2708 150.712 45.5368 149.443 45.5368C148.174 45.5368 147.061 45.2695 146.055 44.7361ZM152.088 42.0352C152.784 41.3341 153.132 40.4102 153.132 39.2661C153.132 38.122 152.784 37.1981 152.088 36.4957C151.392 35.7946 150.51 35.4434 149.443 35.4434C148.376 35.4434 147.498 35.7946 146.81 36.4957C146.122 37.1981 145.778 38.1207 145.778 39.2661C145.778 40.4115 146.122 41.3341 146.81 42.0352C147.498 42.7376 148.376 43.0875 149.443 43.0875C150.51 43.0875 151.392 42.7363 152.088 42.0352Z" fill="white"/>
<path d="M166.01 33.0163V35.7408C165.763 35.695 165.538 35.6727 165.336 35.6727C164.207 35.6727 163.325 35.9977 162.691 36.6451C162.056 37.2938 161.74 38.2282 161.74 39.4496V45.3783H158.84V33.1552H161.602V34.9401C162.438 33.6585 163.907 33.0176 166.011 33.0176L166.01 33.0163Z" fill="white"/>
<path d="M179.956 40.1808H170.233C170.403 41.0811 170.848 41.7941 171.567 42.3209C172.287 42.8477 173.18 43.1111 174.246 43.1111C175.608 43.1111 176.729 42.6682 177.611 41.7836L179.166 43.5462C178.609 44.2028 177.905 44.6981 177.055 45.0336C176.203 45.3691 175.245 45.5368 174.177 45.5368C172.816 45.5368 171.617 45.2695 170.581 44.7361C169.545 44.2014 168.744 43.4584 168.179 42.5043C167.615 41.5503 167.333 40.4704 167.333 39.2648C167.333 38.0591 167.608 37.0029 168.157 36.0488C168.705 35.0948 169.468 34.3517 170.442 33.817C171.417 33.2837 172.514 33.0163 173.736 33.0163C174.958 33.0163 176.021 33.2797 176.974 33.8065C177.925 34.3334 178.667 35.0738 179.201 36.0265C179.735 36.9806 180.003 38.0827 180.003 39.3342C180.003 39.5334 179.987 39.8152 179.956 40.1808ZM171.382 36.1183C170.741 36.6595 170.35 37.3816 170.211 38.2819H177.241C177.117 37.3973 176.737 36.6792 176.104 36.1301C175.469 35.581 174.681 35.3058 173.736 35.3058C172.792 35.3058 172.023 35.577 171.381 36.1183H171.382Z" fill="white"/>
<path d="M20.6184 24.9178C17.3743 30.4717 19.4361 38.9008 23.0242 44.0105C24.8149 46.5659 26.6283 48.8593 29.1111 48.8593C29.1576 48.8593 29.2054 48.8593 29.2533 48.8567C30.4196 48.8108 31.2632 48.457 32.0789 48.1136C32.9942 47.7284 33.9413 47.3313 35.4265 47.3313C36.9117 47.3313 37.7407 47.7166 38.6122 48.0874C39.4717 48.4544 40.3564 48.8344 41.6636 48.8095C44.4613 48.7584 46.179 46.2829 47.6934 44.0996C49.2742 41.8206 50.0687 39.6072 50.3357 38.7606L50.3463 38.7265C50.3968 38.5758 50.325 38.412 50.1789 38.3465C50.1789 38.3465 50.1603 38.3386 50.1563 38.3373C49.6635 38.1381 45.3421 36.2471 45.2969 31.0929C45.2544 26.9045 48.5383 24.6884 49.1972 24.2861L49.2278 24.2665C49.2995 24.2219 49.3486 24.1498 49.3659 24.0673C49.3832 23.9847 49.3659 23.8995 49.3168 23.8301C47.0504 20.5577 43.5766 20.065 42.1777 20.006C41.9758 19.9864 41.7659 19.9759 41.556 19.9759C39.9127 19.9759 38.3398 20.5879 37.0751 21.0793C36.2024 21.4187 35.4478 21.7123 34.9297 21.7123C34.3452 21.7123 33.5866 21.4148 32.7099 21.0728C31.5355 20.6128 30.2044 20.0925 28.7963 20.0925C28.7631 20.0925 28.7299 20.0925 28.6966 20.0938C25.4207 20.141 22.3254 21.9901 20.6197 24.9165L20.6184 24.9178Z" fill="white"/>
<path d="M42.179 11.0002C40.1956 11.0802 37.8164 12.2845 36.395 13.9279C35.1861 15.3079 34.0051 17.6117 34.3159 19.9326C34.3359 20.0781 34.4554 20.1895 34.6042 20.2013C34.7384 20.2117 34.8739 20.217 35.0107 20.217C36.9502 20.217 39.0425 19.1581 40.4706 17.4545C41.9744 15.6551 42.7343 13.346 42.5045 11.2768C42.4859 11.1143 42.3411 10.9937 42.179 11.0002Z" fill="white"/>
</svg>
