<svg width="300" height="300" viewBox="0 0 300 300" fill="none" xmlns="http://www.w3.org/2000/svg">
<path d="M150 300C232.843 300 300 232.843 300 150C300 67.1573 232.843 0 150 0C67.1573 0 0 67.1573 0 150C0 232.843 67.1573 300 150 300Z" fill="#4DB85A"/>
<path d="M148.38 52.14C125.31 52.14 111.42 62.43 104.415 84.675C101.805 92.94 96.5102 96.6 88.7102 95.505C82.7852 94.665 79.1102 90.69 78.8102 84.63C78.3602 75.405 81.5552 67.215 86.3402 59.625C97.2452 42.33 113.535 33.15 133.17 29.595C151.095 26.34 168.645 28.08 185.52 35.235C226.395 52.545 231.3 101.775 204.765 128.61C198.765 134.685 192.225 140.025 185.16 144.765C179.01 148.89 172.92 153.105 167.46 158.16C160.575 164.52 157.17 172.365 157.005 181.695C156.945 184.92 157.215 188.145 156.585 191.355C155.22 198.315 150.6 202.14 143.475 202.065C136.08 201.975 131.115 198.225 130.26 191.055C128.265 174.375 131.82 159.225 143.7 146.64C150.225 139.725 157.695 133.995 165.48 128.625C172.08 124.08 178.545 119.37 184.035 113.46C200.88 95.37 196.14 68.82 174.045 57.75C165.975 53.715 157.365 52.08 148.38 52.17V52.14ZM124.935 254.01C125.025 263.925 133.305 271.95 143.49 271.98C154.005 272.01 162.21 264.09 162.225 253.92C162.225 243.69 154.11 235.8 143.565 235.815C133.14 235.815 124.83 243.93 124.92 254.01H124.935Z" fill="white"/>
</svg>
