<svg width="60" height="60" viewBox="0 0 60 60" fill="none" xmlns="http://www.w3.org/2000/svg">
<path d="M50 0H10C4.47715 0 0 4.47715 0 10V50C0 55.5228 4.47715 60 10 60H50C55.5228 60 60 55.5228 60 50V10C60 4.47715 55.5228 0 50 0Z" fill="#4DB859"/>
<path d="M29.6751 10.427C29.6752 10.4269 29.6751 10.4268 29.675 10.4268C25.0621 10.428 22.2837 12.4847 20.8828 16.9353C20.3619 18.5894 19.3025 19.3201 17.7422 19.101C16.5562 18.9346 15.8209 18.1383 15.7611 16.9266C15.6703 15.0826 16.3102 13.4449 17.2682 11.925C19.4479 8.46679 22.7074 6.62929 26.6338 5.91796C30.2186 5.26816 33.7301 5.61621 37.1039 7.04472C45.2795 10.5059 46.2604 20.3519 40.9523 25.7209C39.7523 26.9344 38.4439 28.0031 37.0307 28.9518C35.8002 29.7779 34.5832 30.6199 33.4898 31.6307C32.1129 32.9039 31.4332 34.4707 31.4004 36.3387C31.3893 36.982 31.4408 37.6277 31.3148 38.2699C31.0418 39.6621 30.1166 40.4268 28.6922 40.4109C27.2121 40.3939 26.2213 39.6434 26.0502 38.2078C25.6518 34.8703 26.3607 31.8428 28.7391 29.325C30.0451 27.9428 31.5369 26.7949 33.0938 25.7209C34.4133 24.8103 35.7059 23.8693 36.8057 22.6875C40.1748 19.0693 39.2279 13.759 34.8076 11.5447C33.1935 10.7362 31.471 10.4104 29.6752 10.4273C29.6751 10.4273 29.675 10.4272 29.6751 10.427ZM24.987 50.8022C24.9871 50.8021 24.9873 50.8022 24.9873 50.8024C25.0045 52.7856 26.6626 54.3902 28.6992 54.3961C30.8021 54.4019 32.4439 52.8193 32.4469 50.7844C32.4498 48.7377 30.825 47.1603 28.7162 47.1633C26.6304 47.1656 24.97 48.7861 24.9867 50.8021C24.9867 50.8023 24.9869 50.8023 24.987 50.8022Z" fill="white"/>
</svg>
